<svg width="200" height="35" viewBox="0 0 200 35" fill="none" xmlns="http://www.w3.org/2000/svg">
<g id="Group">
<g id="Group_2">
<path id="Vector" d="M15.7487 21.182L28.4906 34.1323L32.3757 22.4771L10.5686 0.238281L0 34.0281L11.432 34.1323L15.7487 21.182Z" fill="#01350B"/>
</g>
<g id="Group_3">
<path id="Vector_2" d="M44.1798 13.1886L31.4379 0.238281L27.5529 11.8936L49.3599 34.1323L59.9286 0.342508L48.4966 0.238281L44.1798 13.1886Z" fill="#01350B"/>
</g>
<g id="Group_4">
<path id="Vector_3" d="M70.884 16.5675L76.9275 0.640137H80.0385L86.082 16.5675H82.7328L81.3485 12.5335H75.4241L74.0397 16.5675H70.884ZM76.2577 10.0477H80.4851L78.3863 3.85539L76.2577 10.0477Z" fill="#01350B"/>
<path id="Vector_4" d="M87.7492 20.4526L89.0145 18.3686C89.863 18.9491 90.9496 19.2319 92.2893 19.2319C93.0187 19.2319 93.629 19.0086 94.1351 18.5472C94.6263 18.1006 94.8793 17.4755 94.8793 16.7014V15.4809C94.4923 15.7786 94.0755 16.0316 93.629 16.24C93.1824 16.4483 92.5721 16.5526 91.8278 16.5526C90.7561 16.5526 89.8481 16.3144 89.074 15.853C88.3 15.3767 87.7195 14.7366 87.3027 13.9179C86.9008 13.0992 86.6924 12.1614 86.6924 11.1045C86.6924 9.98809 86.9454 8.9759 87.4664 8.06789C87.9874 7.15988 88.7168 6.44538 89.6695 5.90951C90.6221 5.37364 91.7385 5.10571 93.0187 5.10571C93.9862 5.10571 94.8942 5.18015 95.7129 5.34389C96.5465 5.50763 97.2015 5.67136 97.6927 5.84998V16.7461C97.6927 17.7881 97.4545 18.6663 96.9931 19.3957C96.5316 20.1251 95.8916 20.6759 95.0877 21.0629C94.2839 21.435 93.361 21.6285 92.3339 21.6285C91.1729 21.6285 90.25 21.5243 89.5653 21.3159C88.8805 21.1075 88.2702 20.8247 87.7492 20.4526ZM94.8645 11.8041V7.78508C94.6412 7.71065 94.4179 7.65108 94.1648 7.60643C93.9267 7.56177 93.5545 7.5469 93.0484 7.5469C92.2893 7.5469 91.6492 7.71068 91.1282 8.03816C90.6072 8.36564 90.2202 8.79726 89.9523 9.31825C89.6843 9.83924 89.5504 10.4198 89.5504 11.045C89.5504 11.9083 89.7588 12.6228 90.1904 13.2182C90.6221 13.8137 91.3069 14.0965 92.2744 14.0965C93.9862 14.0965 94.8645 13.3373 94.8645 11.8041Z" fill="#01350B"/>
<path id="Vector_5" d="M109.452 13.2183L110.985 14.9451C110.941 14.9897 110.807 15.1237 110.598 15.3321C110.39 15.5405 110.077 15.7786 109.66 16.0317C109.259 16.2847 108.738 16.4932 108.112 16.6718C107.487 16.8504 106.728 16.9397 105.85 16.9397C104.659 16.9397 103.617 16.6866 102.739 16.1656C101.861 15.6446 101.161 14.9301 100.67 14.0072C100.178 13.0844 99.9254 12.0275 99.9254 10.8367C99.9254 9.73517 100.164 8.75273 100.655 7.85961C101.146 6.98137 101.816 6.28175 102.664 5.76076C103.513 5.23977 104.495 4.98676 105.612 4.98676C106.654 4.98676 107.517 5.16534 108.217 5.53748C108.916 5.90961 109.482 6.40082 109.914 7.01112C110.345 7.62142 110.658 8.3062 110.851 9.08024C111.045 9.85428 111.134 10.6283 111.134 11.4172V11.8191H102.769C102.769 12.355 102.917 12.8313 103.23 13.2332C103.543 13.6352 103.93 13.9626 104.406 14.1859C104.882 14.4241 105.373 14.5282 105.865 14.5282C106.594 14.5282 107.204 14.439 107.681 14.2752C108.157 14.1115 108.544 13.9179 108.827 13.7095C109.125 13.516 109.318 13.3523 109.452 13.2183ZM101.712 3.6619L104.198 0.268066H106.847L109.333 3.6619H106.847L105.507 1.84593L104.198 3.6619H101.712ZM102.739 9.77981H108.231C108.231 9.39279 108.127 9.02064 107.934 8.64851C107.74 8.27637 107.443 7.96381 107.056 7.71076C106.668 7.45771 106.192 7.33862 105.597 7.33862C104.972 7.33862 104.451 7.45771 104.034 7.71076C103.617 7.96381 103.29 8.26149 103.066 8.64851C102.858 9.02064 102.739 9.39279 102.739 9.77981Z" fill="#01350B"/>
<path id="Vector_6" d="M113.292 16.5677V5.37385H115.987L116.061 6.63911C116.344 6.32651 116.761 5.98419 117.297 5.64183C117.833 5.29947 118.547 5.13574 119.425 5.13574C120.81 5.13574 121.866 5.55252 122.611 6.3861C123.355 7.21968 123.727 8.35093 123.727 9.76504V16.5677H120.914V9.77994C120.914 9.08033 120.72 8.52955 120.333 8.12765C119.946 7.72574 119.44 7.53223 118.815 7.53223C118.041 7.53223 117.386 7.8151 116.88 8.39563C116.374 8.97616 116.121 9.67578 116.121 10.4945V16.5677H113.292Z" fill="#01350B"/>
<path id="Vector_7" d="M134.653 13.263L136.32 15.0791C135.799 15.6298 135.174 16.0764 134.445 16.4188C133.715 16.7462 132.882 16.9249 131.944 16.9249C130.664 16.9249 129.577 16.6718 128.684 16.1657C127.791 15.6596 127.106 14.96 126.63 14.0669C126.153 13.1738 125.93 12.1317 125.93 10.9558C125.93 9.86917 126.183 8.87191 126.689 7.9639C127.195 7.05589 127.91 6.32649 128.803 5.79062C129.696 5.25475 130.753 4.97192 131.944 4.97192C132.852 4.97192 133.685 5.13563 134.43 5.46311C135.174 5.79059 135.814 6.23714 136.335 6.7879L134.549 8.60394C134.251 8.23181 133.879 7.94902 133.432 7.74062C133.001 7.53222 132.495 7.42801 131.944 7.42801C131.229 7.42801 130.634 7.59174 130.158 7.9341C129.681 8.26158 129.339 8.70817 129.101 9.22916C128.863 9.76503 128.758 10.3307 128.758 10.941C128.758 11.4917 128.877 12.0424 129.101 12.5932C129.324 13.1291 129.681 13.5756 130.158 13.9329C130.634 14.2901 131.214 14.4539 131.944 14.4539C132.495 14.4539 133.016 14.3497 133.477 14.1264C133.953 13.918 134.34 13.6352 134.653 13.263Z" fill="#01350B"/>
<path id="Vector_8" d="M138.225 3.60231V0.640137H141.232V3.60231H138.225ZM138.33 16.5675V5.37366H141.143V16.5675H138.33Z" fill="#01350B"/>
<path id="Vector_9" d="M150.729 16.5677L150.655 15.5108C150.357 15.8829 149.881 16.2104 149.256 16.4933C148.63 16.7761 147.931 16.9249 147.186 16.9249C146.576 16.9249 145.981 16.7909 145.385 16.5379C144.79 16.2848 144.299 15.8829 143.912 15.347C143.525 14.8112 143.331 14.1265 143.331 13.2929C143.331 12.0128 143.778 11.0303 144.686 10.3307C145.594 9.63111 146.785 9.27384 148.243 9.27384C148.511 9.27384 148.839 9.28876 149.211 9.30364C149.583 9.31853 150.059 9.3483 150.655 9.37807V9.11009C150.655 8.55933 150.431 8.1128 149.985 7.8002C149.538 7.48761 148.958 7.32384 148.243 7.32384C147.454 7.32384 146.814 7.42806 146.338 7.63645C145.862 7.84485 145.445 8.06813 145.073 8.30629L143.778 6.40099C144.075 6.17771 144.433 5.95437 144.849 5.74598C145.266 5.53758 145.772 5.35902 146.383 5.21016C146.993 5.06131 147.737 5.00171 148.63 5.00171C150.059 5.00171 151.206 5.37386 152.069 6.13301C152.932 6.89217 153.364 7.85975 153.364 9.06546V16.5826H150.729V16.5677ZM150.655 12.5933V11.4918C150.283 11.462 149.896 11.4322 149.464 11.4173C149.032 11.4024 148.705 11.3876 148.482 11.3876C147.574 11.3876 146.933 11.5662 146.576 11.9234C146.204 12.2807 146.025 12.6975 146.025 13.1589C146.025 13.6353 146.189 14.0074 146.532 14.2753C146.874 14.5433 147.38 14.6772 148.05 14.6772C148.496 14.6772 148.913 14.5879 149.3 14.3944C149.687 14.2009 150.015 13.9478 150.268 13.6352C150.521 13.3375 150.655 12.9803 150.655 12.5933Z" fill="#01350B"/>
<path id="Vector_10" d="M159.184 16.5675L155.046 0.640137H158.336L160.941 12.5633L164.022 1.1016H166.746L169.857 12.5633L172.432 0.640137H175.588L171.405 16.5675H168.249L165.287 6.02867L162.28 16.5675H159.184Z" fill="#01350B"/>
<path id="Vector_11" d="M185.144 13.2184L186.677 14.9451C186.633 14.9898 186.499 15.1238 186.29 15.3322C186.082 15.5406 185.769 15.7787 185.353 16.0317C184.951 16.2848 184.43 16.4932 183.805 16.6718C183.179 16.8505 182.42 16.9398 181.542 16.9398C180.351 16.9398 179.309 16.6867 178.431 16.1657C177.553 15.6447 176.853 14.9302 176.362 14.0073C175.871 13.0844 175.618 12.0276 175.618 10.8367C175.618 9.73522 175.856 8.75279 176.347 7.85967C176.838 6.98143 177.508 6.2818 178.356 5.76081C179.205 5.23982 180.187 4.98682 181.304 4.98682C182.346 4.98682 183.209 5.1654 183.909 5.53753C184.608 5.90967 185.174 6.40087 185.606 7.01117C186.037 7.62147 186.35 8.30626 186.543 9.0803C186.737 9.83945 186.826 10.6283 186.826 11.4173V11.8192H178.461C178.461 12.3551 178.61 12.8314 178.922 13.2333C179.235 13.6352 179.622 13.9627 180.098 14.186C180.574 14.4241 181.066 14.5283 181.557 14.5283C182.286 14.5283 182.897 14.439 183.373 14.2753C183.849 14.1115 184.236 13.918 184.519 13.7096C184.802 13.5161 185.01 13.3524 185.144 13.2184ZM178.431 9.77987H183.924C183.924 9.39285 183.819 9.0207 183.626 8.64856C183.432 8.27643 183.135 7.96386 182.748 7.71081C182.361 7.45776 181.884 7.33868 181.289 7.33868C180.664 7.33868 180.143 7.45776 179.726 7.71081C179.309 7.96386 178.982 8.26154 178.758 8.64856C178.535 9.0207 178.431 9.39285 178.431 9.77987Z" fill="#01350B"/>
<path id="Vector_12" d="M188.985 16.2103V0.640137H191.798V6.13283C191.991 5.93932 192.364 5.73095 192.914 5.49279C193.465 5.25462 194.105 5.13555 194.864 5.13555C195.951 5.13555 196.874 5.38856 197.633 5.90955C198.392 6.43054 198.988 7.11525 199.39 7.9786C199.791 8.84195 200 9.79466 200 10.8515C200 11.9679 199.747 12.9801 199.226 13.903C198.705 14.8259 197.975 15.5702 197.038 16.1209C196.1 16.6717 194.969 16.9545 193.674 16.9545C192.706 16.9545 191.813 16.8801 190.979 16.7164C190.161 16.5526 189.491 16.374 188.985 16.2103ZM191.798 10.0477V14.2752C192.021 14.3347 192.245 14.3943 192.498 14.4389C192.751 14.4836 193.108 14.5133 193.614 14.5133C194.373 14.5133 195.013 14.3495 195.534 14.0072C196.055 13.6648 196.442 13.2183 196.71 12.6675C196.978 12.1167 197.112 11.5362 197.112 10.9111C197.112 10.3305 197.023 9.79466 196.829 9.28856C196.636 8.78246 196.338 8.36562 195.951 8.05303C195.549 7.74044 195.028 7.59164 194.403 7.59164C193.554 7.59164 192.914 7.81491 192.468 8.24658C192.021 8.67826 191.798 9.27369 191.798 10.0477Z" fill="#01350B"/>
</g>
<g id="Group_5">
<path id="Vector_13" d="M70.6609 34.2961V25.6477H76.1089V26.7492H71.9113V29.2648H75.0818V30.3812H71.9113V33.1797H76.4215V34.2961H70.6609Z" fill="#01350B"/>
<path id="Vector_14" d="M77.2852 33.5518L77.9997 32.7778C78.2229 33.0011 78.476 33.1648 78.7737 33.2988C79.0714 33.4327 79.4287 33.4923 79.8306 33.4923C80.2176 33.4923 80.5451 33.4327 80.7981 33.2988C81.0512 33.1797 81.1851 32.9713 81.1851 32.7033C81.1851 32.5098 81.1405 32.361 81.0363 32.2568C80.9321 32.1377 80.7535 32.0484 80.5004 31.9591C80.2474 31.8698 79.905 31.7656 79.4584 31.6614C79.1458 31.5869 78.8481 31.4827 78.5504 31.3488C78.2527 31.2148 78.0145 31.0362 77.821 30.798C77.6275 30.5599 77.5382 30.2473 77.5382 29.8751C77.5382 29.4881 77.6573 29.1606 77.8806 28.8927C78.1039 28.6247 78.4016 28.4164 78.7737 28.2824C79.1309 28.1485 79.518 28.074 79.9199 28.074C80.426 28.074 80.8725 28.1485 81.2447 28.2824C81.6168 28.4164 81.9294 28.6099 82.1973 28.848L81.5573 29.6518C81.3786 29.4881 81.1554 29.3542 80.8725 29.2351C80.6046 29.116 80.2771 29.0713 79.9199 29.0713C79.5477 29.0713 79.25 29.1309 79.0267 29.25C78.8035 29.3691 78.6844 29.5626 78.6844 29.8454C78.6844 30.0984 78.8332 30.2919 79.1458 30.4259C79.4435 30.545 79.8306 30.6641 80.3069 30.7831C80.6939 30.8725 81.0363 30.9915 81.334 31.1255C81.6466 31.2743 81.8847 31.4679 82.0783 31.7061C82.2569 31.9442 82.3611 32.2568 82.3611 32.6587C82.3611 33.0606 82.242 33.3881 82.0038 33.6709C81.7657 33.9388 81.4531 34.1473 81.0809 34.2961C80.6939 34.445 80.292 34.5045 79.8454 34.5045C78.7142 34.4747 77.8508 34.177 77.2852 33.5518Z" fill="#01350B"/>
<path id="Vector_15" d="M88.2556 32.7182L88.9701 33.4774C88.7022 33.7751 88.3747 34.0282 87.9728 34.2068C87.5709 34.3854 87.1243 34.4896 86.6033 34.4896C85.9484 34.4896 85.3976 34.3556 84.9213 34.0728C84.4449 33.79 84.0877 33.4178 83.8198 32.9415C83.5667 32.4652 83.4327 31.9144 83.4327 31.2892C83.4327 30.6938 83.5667 30.158 83.8346 29.6816C84.1026 29.1904 84.4747 28.8034 84.9511 28.5205C85.4274 28.2377 85.9781 28.0889 86.5884 28.0889C87.0945 28.0889 87.5411 28.1782 87.943 28.3568C88.33 28.5355 88.6724 28.7885 88.9403 29.1011L88.1812 29.8454C88.0026 29.6221 87.7793 29.4435 87.5262 29.3095C87.2732 29.1755 86.9606 29.1159 86.6033 29.1159C86.1865 29.1159 85.8293 29.2201 85.5316 29.4137C85.2339 29.622 85.0106 29.89 84.8469 30.2175C84.698 30.545 84.6087 30.9022 84.6087 31.2892C84.6087 31.6614 84.6831 32.0186 84.8469 32.3461C85.0106 32.6736 85.2339 32.9564 85.5316 33.1499C85.8293 33.3583 86.1865 33.4625 86.5884 33.4625C86.9457 33.4625 87.2583 33.403 87.5411 33.2541C87.8388 33.1202 88.077 32.9415 88.2556 32.7182Z" fill="#01350B"/>
<path id="Vector_16" d="M92.6617 34.4747C92.0514 34.4747 91.5006 34.3259 91.0094 34.043C90.5182 33.7602 90.146 33.3583 89.8781 32.882C89.6102 32.3908 89.4762 31.8549 89.4762 31.2743C89.4762 30.6789 89.6102 30.1431 89.8781 29.6667C90.146 29.1755 90.5331 28.7885 91.0094 28.5057C91.5006 28.2229 92.0365 28.074 92.6617 28.074C93.272 28.074 93.8227 28.2229 94.2991 28.5057C94.7754 28.7885 95.1624 29.1755 95.4303 29.6667C95.7132 30.158 95.8471 30.6938 95.8471 31.2743C95.8471 31.8549 95.7132 32.3908 95.4303 32.882C95.1475 33.3732 94.7754 33.7602 94.2991 34.043C93.8227 34.3259 93.2868 34.4747 92.6617 34.4747ZM92.6617 33.4625C93.0785 33.4625 93.4506 33.3583 93.7483 33.1499C94.046 32.9415 94.2693 32.6587 94.433 32.3312C94.5968 31.9888 94.6712 31.6465 94.6712 31.2743C94.6712 30.9171 94.5968 30.5599 94.433 30.2175C94.2693 29.8752 94.046 29.6072 93.7334 29.3988C93.4357 29.1904 93.0785 29.0862 92.6617 29.0862C92.2449 29.0862 91.8876 29.1904 91.5899 29.3988C91.2922 29.6072 91.054 29.89 90.8903 30.2175C90.7266 30.545 90.6521 30.9022 90.6521 31.2743C90.6521 31.6316 90.7415 31.9888 90.9052 32.3163C91.0689 32.6438 91.3071 32.9266 91.6048 33.135C91.8876 33.3583 92.2449 33.4625 92.6617 33.4625Z" fill="#01350B"/>
<path id="Vector_17" d="M97.172 34.2961V25.6477H98.3331V34.2961H97.172Z" fill="#01350B"/>
<path id="Vector_18" d="M103.736 34.2961L103.707 33.5667C103.483 33.8644 103.201 34.0877 102.814 34.2366C102.441 34.3854 102.054 34.4599 101.682 34.4599C101.355 34.4599 101.027 34.4003 100.7 34.2812C100.372 34.1621 100.104 33.9686 99.896 33.6858C99.6876 33.403 99.5834 33.0457 99.5834 32.5843C99.5834 31.9293 99.8067 31.4232 100.268 31.0213C100.73 30.6343 101.385 30.4408 102.233 30.4408C102.426 30.4408 102.62 30.4408 102.828 30.4556C103.037 30.4705 103.215 30.4855 103.379 30.5003C103.543 30.5152 103.647 30.5301 103.707 30.5301V30.3068C103.707 29.8602 103.573 29.5327 103.305 29.3392C103.037 29.1457 102.665 29.0415 102.188 29.0415C101.742 29.0415 101.385 29.1011 101.102 29.2351C100.834 29.3542 100.596 29.4881 100.417 29.6221L99.8662 28.8331C100.089 28.6545 100.387 28.4908 100.759 28.3271C101.146 28.1633 101.652 28.074 102.307 28.074C103.081 28.074 103.692 28.2675 104.138 28.6397C104.585 29.0118 104.808 29.5476 104.808 30.2473V33.7602C104.808 33.8198 104.808 33.8942 104.808 33.9835C104.808 34.0728 104.808 34.177 104.823 34.2961H103.736ZM103.692 32.1228V31.4381C103.647 31.4232 103.543 31.4083 103.394 31.3935C103.245 31.3786 103.067 31.3636 102.873 31.3488C102.68 31.3339 102.486 31.3339 102.307 31.3339C101.876 31.3339 101.548 31.3934 101.31 31.5274C101.087 31.6465 100.923 31.8102 100.849 31.9889C100.759 32.1675 100.73 32.361 100.73 32.5396C100.73 32.8671 100.849 33.1052 101.072 33.2839C101.295 33.4625 101.608 33.5369 102.01 33.5369C102.307 33.5369 102.59 33.4774 102.843 33.3286C103.096 33.1946 103.305 33.016 103.468 32.8076C103.617 32.5992 103.692 32.3759 103.692 32.1228Z" fill="#01350B"/>
<path id="Vector_19" d="M107.577 34.2961H106.416V28.8481C106.416 28.7885 106.416 28.7141 106.416 28.6397C106.416 28.5653 106.416 28.4313 106.401 28.2676H107.517L107.562 29.2351C107.651 29.1011 107.785 28.9523 107.964 28.7736C108.128 28.6099 108.351 28.4611 108.604 28.342C108.857 28.2229 109.17 28.1633 109.542 28.1633C109.676 28.1633 109.795 28.1782 109.899 28.1931C110.003 28.208 110.107 28.2378 110.197 28.2676L109.944 29.3542C109.795 29.2946 109.586 29.2648 109.348 29.2648C109.021 29.2648 108.723 29.3542 108.455 29.5179C108.187 29.6817 107.979 29.9049 107.83 30.1878C107.681 30.4706 107.592 30.7683 107.592 31.1107V34.2961H107.577Z" fill="#01350B"/>
</g>
</g>
</svg>
