<svg width="180" height="32" viewBox="0 0 180 32" fill="none" xmlns="http://www.w3.org/2000/svg">
<g id="Group">
<g id="Group_2">
<path id="Vector" d="M14.1739 19.4296L25.6416 31.0849L29.1381 20.5952L9.51176 0.580231L0 30.9911L10.2888 31.0849L14.1739 19.4296Z" fill="#307FE2"/>
</g>
<g id="Group_3">
<path id="Vector_2" d="M39.7618 12.2355L28.2941 0.580231L24.7975 11.07L44.4239 31.0849L53.9356 0.674035L43.6468 0.580231L39.7618 12.2355Z" fill="#F2B025"/>
</g>
<g id="Group_4">
<path id="Vector_3" d="M63.7959 15.2765L69.235 0.941833H72.035L77.4741 15.2765H74.4598L73.2139 11.6459H67.8819L66.636 15.2765H63.7959ZM68.6322 9.40867H72.4369L70.5479 3.83557L68.6322 9.40867Z" fill="#3A3A3C"/>
<path id="Vector_4" d="M78.9744 18.773L80.1131 16.8974C80.8767 17.4199 81.8547 17.6744 83.0604 17.6744C83.7168 17.6744 84.2661 17.4735 84.7216 17.0582C85.1637 16.6563 85.3915 16.0936 85.3915 15.397V14.2985C85.0431 14.5664 84.668 14.7941 84.2661 14.9817C83.8642 15.1692 83.3149 15.263 82.6451 15.263C81.6805 15.263 80.8633 15.0487 80.1667 14.6334C79.4701 14.2047 78.9476 13.6286 78.5725 12.8918C78.2107 12.155 78.0232 11.3109 78.0232 10.3597C78.0232 9.35498 78.2509 8.44401 78.7198 7.6268C79.1887 6.8096 79.8452 6.16655 80.7026 5.68426C81.56 5.20198 82.5647 4.96085 83.7169 4.96085C84.5876 4.96085 85.4049 5.02784 86.1417 5.17521C86.8919 5.32257 87.4814 5.46993 87.9235 5.63069V15.4372C87.9235 16.375 87.7091 17.1654 87.2938 17.8218C86.8785 18.4783 86.3024 18.974 85.579 19.3223C84.8556 19.6572 84.025 19.8313 83.1006 19.8313C82.0556 19.8313 81.225 19.7376 80.6088 19.55C79.9925 19.3624 79.4433 19.1079 78.9744 18.773ZM85.3781 10.9894V7.37228C85.1771 7.30529 84.9762 7.25168 84.7484 7.21149C84.5341 7.1713 84.1991 7.15792 83.7436 7.15792C83.0604 7.15792 82.4843 7.30532 82.0155 7.60005C81.5466 7.89478 81.1982 8.28324 80.9571 8.75213C80.716 9.22102 80.5954 9.74351 80.5954 10.3062C80.5954 11.0832 80.7829 11.7263 81.1715 12.2621C81.56 12.798 82.1762 13.0525 83.047 13.0525C84.5876 13.0525 85.3781 12.3693 85.3781 10.9894Z" fill="#3A3A3C"/>
<path id="Vector_5" d="M98.5072 12.2622L99.8871 13.8163C99.8469 13.8565 99.7263 13.977 99.5388 14.1646C99.3512 14.3522 99.0699 14.5665 98.6948 14.7942C98.333 15.022 97.8642 15.2096 97.3015 15.3703C96.7388 15.5311 96.0556 15.6114 95.2652 15.6114C94.1934 15.6114 93.2556 15.3837 92.4652 14.9148C91.6748 14.4459 91.0452 13.8028 90.6031 12.9722C90.161 12.1416 89.9332 11.1905 89.9332 10.1187C89.9332 9.12736 90.1476 8.24317 90.5897 7.43935C91.0318 6.64894 91.6346 6.01928 92.3982 5.55039C93.1619 5.0815 94.0461 4.85379 95.0508 4.85379C95.9886 4.85379 96.7656 5.01451 97.3953 5.34943C98.0249 5.68435 98.534 6.12644 98.9225 6.67571C99.311 7.22498 99.5923 7.84129 99.7665 8.53792C99.9407 9.23456 100.021 9.93115 100.021 10.6412V11.0029H92.492C92.492 11.4852 92.626 11.9139 92.9073 12.2756C93.1887 12.6373 93.537 12.9321 93.9657 13.133C94.3944 13.3474 94.8365 13.4411 95.2786 13.4411C95.935 13.4411 96.4843 13.3608 96.913 13.2134C97.3417 13.066 97.69 12.8918 97.9445 12.7043C98.2125 12.5301 98.3866 12.3828 98.5072 12.2622ZM91.5408 3.66142L93.7781 0.606964H96.1628L98.4 3.66142H96.1628L94.957 2.02704L93.7781 3.66142H91.5408ZM92.4652 9.16753H97.4087C97.4087 8.81922 97.3149 8.48428 97.1407 8.14936C96.9666 7.81444 96.6986 7.53313 96.3503 7.30539C96.002 7.07764 95.5733 6.97047 95.0374 6.97047C94.4748 6.97047 94.0059 7.07764 93.6308 7.30539C93.2556 7.53313 92.9609 7.80104 92.76 8.14936C92.5724 8.48428 92.4652 8.81922 92.4652 9.16753Z" fill="#3A3A3C"/>
<path id="Vector_6" d="M101.963 15.2766V5.20218H104.388L104.455 6.34091C104.71 6.05958 105.085 5.75149 105.567 5.44336C106.049 5.13524 106.692 4.98788 107.483 4.98788C108.729 4.98788 109.68 5.36298 110.35 6.11321C111.02 6.86343 111.354 7.88155 111.354 9.15425V15.2766H108.822V9.16766C108.822 8.53801 108.648 8.04231 108.3 7.6806C107.952 7.31888 107.496 7.14472 106.933 7.14472C106.237 7.14472 105.647 7.3993 105.192 7.92178C104.736 8.44426 104.509 9.07392 104.509 9.81075V15.2766H101.963Z" fill="#3A3A3C"/>
<path id="Vector_7" d="M121.188 12.3025L122.688 13.9369C122.219 14.4326 121.657 14.8345 121 15.1426C120.344 15.4373 119.593 15.5981 118.749 15.5981C117.597 15.5981 116.619 15.3703 115.816 14.9148C115.012 14.4593 114.396 13.8298 113.967 13.0259C113.538 12.2221 113.337 11.2843 113.337 10.2259C113.337 9.24798 113.565 8.35044 114.02 7.53323C114.476 6.71603 115.119 6.05957 115.923 5.57728C116.727 5.09499 117.678 4.84045 118.749 4.84045C119.567 4.84045 120.317 4.98779 120.987 5.28252C121.657 5.57725 122.233 5.97915 122.702 6.47483L121.094 8.10927C120.826 7.77435 120.491 7.51984 120.089 7.33228C119.701 7.14472 119.245 7.05093 118.749 7.05093C118.106 7.05093 117.571 7.19829 117.142 7.50641C116.713 7.80114 116.405 8.20308 116.191 8.67197C115.976 9.15425 115.883 9.66333 115.883 10.2126C115.883 10.7083 115.99 11.2039 116.191 11.6996C116.392 12.1819 116.713 12.5838 117.142 12.9053C117.571 13.2268 118.093 13.3742 118.749 13.3742C119.245 13.3742 119.714 13.2805 120.129 13.0795C120.558 12.892 120.906 12.6374 121.188 12.3025Z" fill="#3A3A3C"/>
<path id="Vector_8" d="M124.403 3.60779V0.941833H127.109V3.60779H124.403ZM124.497 15.2765V5.202H127.029V15.2765H124.497Z" fill="#3A3A3C"/>
<path id="Vector_9" d="M135.657 15.2766L135.59 14.3254C135.322 14.6604 134.893 14.9551 134.33 15.2096C133.768 15.4642 133.138 15.5981 132.468 15.5981C131.919 15.5981 131.383 15.4775 130.847 15.2498C130.311 15.0221 129.869 14.6603 129.521 14.1781C129.173 13.6958 128.998 13.0795 128.998 12.3293C128.998 11.1772 129.4 10.293 130.218 9.66336C131.035 9.03371 132.106 8.71217 133.419 8.71217C133.661 8.71217 133.955 8.72559 134.29 8.73899C134.625 8.75239 135.054 8.77918 135.59 8.80597V8.56479C135.59 8.06911 135.389 7.66723 134.987 7.38589C134.585 7.10456 134.062 6.95717 133.419 6.95717C132.709 6.95717 132.133 7.05096 131.705 7.23852C131.276 7.42607 130.901 7.62702 130.566 7.84137L129.4 6.1266C129.668 5.92565 129.99 5.72465 130.365 5.53709C130.74 5.34953 131.195 5.18883 131.745 5.05486C132.294 4.92089 132.964 4.86725 133.768 4.86725C135.054 4.86725 136.085 5.20218 136.862 5.88542C137.639 6.56866 138.028 7.43948 138.028 8.52463V15.29H135.657V15.2766ZM135.59 11.6996V10.7083C135.255 10.6815 134.906 10.6547 134.518 10.6413C134.129 10.6279 133.835 10.6145 133.634 10.6145C132.817 10.6145 132.24 10.7753 131.919 11.0968C131.584 11.4183 131.423 11.7935 131.423 12.2088C131.423 12.6375 131.571 12.9724 131.879 13.2135C132.187 13.4547 132.642 13.5752 133.245 13.5752C133.647 13.5752 134.022 13.4948 134.371 13.3207C134.719 13.1465 135.014 12.9188 135.241 12.6374C135.469 12.3695 135.59 12.048 135.59 11.6996Z" fill="#3A3A3C"/>
<path id="Vector_10" d="M143.266 15.2765L139.542 0.941833H142.502L144.847 11.6727L147.62 1.35715H150.072L152.872 11.6727L155.189 0.941833H158.029L154.265 15.2765H151.425L148.759 5.79152L146.053 15.2765H143.266Z" fill="#3A3A3C"/>
<path id="Vector_11" d="M166.63 12.2623L168.01 13.8163C167.97 13.8565 167.849 13.9771 167.661 14.1647C167.474 14.3522 167.193 14.5665 166.817 14.7943C166.456 15.022 165.987 15.2096 165.424 15.3704C164.862 15.5311 164.178 15.6115 163.388 15.6115C162.316 15.6115 161.378 15.3837 160.588 14.9148C159.798 14.4459 159.168 13.8029 158.726 12.9723C158.284 12.1417 158.056 11.1905 158.056 10.1188C158.056 9.12742 158.27 8.24323 158.712 7.43942C159.154 6.649 159.757 6.01934 160.521 5.55045C161.285 5.08156 162.169 4.85385 163.173 4.85385C164.111 4.85385 164.888 5.01457 165.518 5.3495C166.148 5.68442 166.657 6.1265 167.045 6.67577C167.434 7.22504 167.715 7.84135 167.889 8.53798C168.063 9.22122 168.144 9.93122 168.144 10.6412V11.003H160.615C160.615 11.4853 160.749 11.914 161.03 12.2757C161.311 12.6374 161.66 12.9321 162.088 13.1331C162.517 13.3474 162.959 13.4412 163.401 13.4412C164.058 13.4412 164.607 13.3608 165.036 13.2135C165.464 13.0661 165.813 12.8919 166.067 12.7044C166.322 12.5302 166.509 12.3829 166.63 12.2623ZM160.588 9.1676H165.531C165.531 8.81928 165.438 8.48434 165.263 8.14942C165.089 7.8145 164.821 7.53319 164.473 7.30545C164.125 7.0777 163.696 6.97053 163.16 6.97053C162.597 6.97053 162.129 7.0777 161.753 7.30545C161.378 7.53319 161.084 7.80111 160.883 8.14942C160.682 8.48434 160.588 8.81928 160.588 9.1676Z" fill="#3A3A3C"/>
<path id="Vector_12" d="M170.086 14.9549V0.941833H172.618V5.88526C172.793 5.7111 173.128 5.52357 173.623 5.30922C174.119 5.09487 174.695 4.98771 175.378 4.98771C176.356 4.98771 177.187 5.21541 177.87 5.6843C178.553 6.15319 179.089 6.76943 179.451 7.54645C179.813 8.32347 180 9.18091 180 10.1321C180 11.1368 179.772 12.0478 179.303 12.8784C178.835 13.709 178.178 14.3789 177.334 14.8746C176.49 15.3702 175.472 15.6248 174.306 15.6248C173.436 15.6248 172.632 15.5578 171.882 15.4104C171.145 15.2631 170.542 15.1023 170.086 14.9549ZM172.618 9.40867V13.2134C172.819 13.2669 173.02 13.3205 173.248 13.3607C173.476 13.4009 173.797 13.4277 174.253 13.4277C174.936 13.4277 175.512 13.2803 175.981 12.9722C176.45 12.664 176.798 12.2621 177.039 11.7665C177.281 11.2708 177.401 10.7483 177.401 10.1857C177.401 9.66318 177.321 9.18091 177.147 8.72541C176.972 8.26992 176.704 7.89477 176.356 7.61344C175.994 7.3321 175.526 7.19819 174.963 7.19819C174.199 7.19819 173.623 7.39913 173.221 7.78763C172.819 8.17614 172.618 8.71203 172.618 9.40867Z" fill="#3A3A3C"/>
</g>
<g id="Group_5">
<path id="Vector_13" d="M63.595 31.2323V23.4487H68.4982V24.4401H64.7203V26.7041H67.5738V27.7089H64.7203V30.2275H68.7796V31.2323H63.595Z" fill="#3A3A3C"/>
<path id="Vector_14" d="M69.5564 30.5625L70.1994 29.8658C70.4004 30.0668 70.6281 30.2141 70.8961 30.3347C71.164 30.4553 71.4855 30.5089 71.8473 30.5089C72.1956 30.5089 72.4903 30.4553 72.7181 30.3347C72.9458 30.2275 73.0664 30.04 73.0664 29.7988C73.0664 29.6247 73.0262 29.4907 72.9324 29.3969C72.8386 29.2898 72.6779 29.2094 72.4501 29.129C72.2224 29.0486 71.9142 28.9548 71.5123 28.8611C71.231 28.7941 70.9631 28.7003 70.6951 28.5797C70.4272 28.4591 70.2128 28.2984 70.0387 28.0841C69.8645 27.8697 69.7841 27.5884 69.7841 27.2534C69.7841 26.9051 69.8913 26.6104 70.0923 26.3692C70.2932 26.1281 70.5612 25.9406 70.8961 25.82C71.2176 25.6995 71.5659 25.6324 71.9276 25.6324C72.3831 25.6324 72.785 25.6995 73.12 25.82C73.4549 25.9406 73.7362 26.1147 73.9774 26.3291L73.4013 27.0525C73.2405 26.9051 73.0396 26.7846 72.785 26.6774C72.5439 26.5702 72.2492 26.53 71.9276 26.53C71.5927 26.53 71.3248 26.5836 71.1238 26.6908C70.9229 26.798 70.8157 26.9722 70.8157 27.2267C70.8157 27.4544 70.9497 27.6286 71.231 27.7492C71.4989 27.8563 71.8473 27.9635 72.276 28.0707C72.6243 28.151 72.9324 28.2582 73.2003 28.3788C73.4817 28.5127 73.696 28.6869 73.8702 28.9013C74.0309 29.1156 74.1247 29.397 74.1247 29.7587C74.1247 30.1204 74.0175 30.4151 73.8032 30.6696C73.5888 30.9108 73.3075 31.0984 72.9726 31.2323C72.6243 31.3663 72.2626 31.4199 71.8607 31.4199C70.8425 31.3931 70.0655 31.1252 69.5564 30.5625Z" fill="#3A3A3C"/>
<path id="Vector_15" d="M79.4297 29.8122L80.0727 30.4955C79.8316 30.7634 79.5369 30.9912 79.1751 31.1519C78.8134 31.3127 78.4115 31.4065 77.9426 31.4065C77.3532 31.4065 76.8575 31.2859 76.4288 31.0314C76.0001 30.7768 75.6786 30.4419 75.4374 30.0132C75.2097 29.5845 75.0891 29.0888 75.0891 28.5261C75.0891 27.9903 75.2097 27.508 75.4508 27.0793C75.692 26.6372 76.0269 26.2888 76.4556 26.0343C76.8843 25.7798 77.38 25.6458 77.9292 25.6458C78.3847 25.6458 78.7866 25.7262 79.1484 25.887C79.4967 26.0478 79.8048 26.2755 80.0459 26.5568L79.3627 27.2267C79.2019 27.0257 79.001 26.865 78.7732 26.7444C78.5455 26.6238 78.2642 26.5702 77.9426 26.5702C77.5675 26.5702 77.246 26.664 76.9781 26.8381C76.7101 27.0257 76.5092 27.2669 76.3618 27.5616C76.2278 27.8563 76.1475 28.1778 76.1475 28.5261C76.1475 28.8611 76.2144 29.1826 76.3618 29.4773C76.5092 29.7721 76.7101 30.0266 76.9781 30.2007C77.246 30.3883 77.5675 30.4821 77.9292 30.4821C78.2508 30.4821 78.5321 30.4285 78.7866 30.2945C79.0546 30.174 79.2689 30.0132 79.4297 29.8122Z" fill="#3A3A3C"/>
<path id="Vector_16" d="M83.3951 31.3931C82.8458 31.3931 82.3502 31.2591 81.9081 31.0046C81.466 30.75 81.1311 30.3883 80.8899 29.9596C80.6488 29.5175 80.5282 29.0352 80.5282 28.5127C80.5282 27.9769 80.6488 27.4946 80.8899 27.0659C81.1311 26.6238 81.4794 26.2755 81.9081 26.021C82.3502 25.7664 82.8325 25.6324 83.3951 25.6324C83.9444 25.6324 84.4401 25.7664 84.8688 26.021C85.2975 26.2755 85.6458 26.6238 85.8869 27.0659C86.1415 27.508 86.262 27.9903 86.262 28.5127C86.262 29.0352 86.1415 29.5175 85.8869 29.9596C85.6324 30.4017 85.2975 30.75 84.8688 31.0046C84.4401 31.2591 83.9578 31.3931 83.3951 31.3931ZM83.3951 30.4821C83.7702 30.4821 84.1052 30.3883 84.3731 30.2008C84.641 30.0132 84.842 29.7587 84.9893 29.4639C85.1367 29.1558 85.2037 28.8477 85.2037 28.5127C85.2037 28.1912 85.1367 27.8697 84.9893 27.5616C84.842 27.2535 84.641 27.0123 84.3597 26.8248C84.0918 26.6372 83.7702 26.5434 83.3951 26.5434C83.02 26.5434 82.6985 26.6372 82.4306 26.8248C82.1626 27.0123 81.9483 27.2669 81.8009 27.5616C81.6535 27.8563 81.5865 28.1778 81.5865 28.5127C81.5865 28.8343 81.6669 29.1558 81.8143 29.4505C81.9617 29.7452 82.176 29.9998 82.4439 30.1873C82.6985 30.3883 83.02 30.4821 83.3951 30.4821Z" fill="#3A3A3C"/>
<path id="Vector_17" d="M87.4545 31.2323V23.4488H88.4994V31.2323H87.4545Z" fill="#3A3A3C"/>
<path id="Vector_18" d="M93.3622 31.2323L93.3354 30.5759C93.1345 30.8438 92.8799 31.0448 92.5316 31.1788C92.1967 31.3127 91.8484 31.3797 91.5135 31.3797C91.2187 31.3797 90.924 31.3261 90.6293 31.2189C90.3345 31.1118 90.0934 30.9376 89.9059 30.6831C89.7183 30.4285 89.6245 30.107 89.6245 29.6917C89.6245 29.1022 89.8255 28.6467 90.2408 28.285C90.6561 27.9367 91.2455 27.7626 92.0092 27.7626C92.1833 27.7626 92.3575 27.7625 92.545 27.7759C92.7326 27.7893 92.8933 27.8027 93.0407 27.8161C93.1881 27.8295 93.2819 27.8429 93.3354 27.8429V27.6419C93.3354 27.24 93.2149 26.9453 92.9737 26.7711C92.7326 26.597 92.3977 26.5032 91.969 26.5032C91.5671 26.5032 91.2455 26.5568 90.991 26.6774C90.7498 26.7846 90.5355 26.9052 90.3747 27.0257L89.8791 26.3157C90.08 26.1549 90.3479 26.0076 90.6829 25.8602C91.0312 25.7128 91.4867 25.6324 92.0761 25.6324C92.7728 25.6324 93.322 25.8066 93.724 26.1415C94.1259 26.4765 94.3268 26.9587 94.3268 27.5884V30.75C94.3268 30.8036 94.3268 30.8706 94.3268 30.951C94.3268 31.0314 94.3268 31.1252 94.3402 31.2323H93.3622ZM93.322 29.2764V28.6601C93.2819 28.6467 93.1881 28.6333 93.0541 28.62C92.9201 28.6066 92.7594 28.5931 92.5852 28.5797C92.4111 28.5663 92.2369 28.5664 92.0761 28.5664C91.6876 28.5664 91.3929 28.6199 91.1786 28.7405C90.9776 28.8477 90.8302 28.9951 90.7632 29.1558C90.6829 29.3166 90.6561 29.4907 90.6561 29.6515C90.6561 29.9462 90.7632 30.1605 90.9642 30.3213C91.1651 30.4821 91.4465 30.5491 91.8082 30.5491C92.0761 30.5491 92.3307 30.4955 92.5584 30.3615C92.7862 30.241 92.9737 30.0802 93.1211 29.8927C93.2551 29.7051 93.322 29.5041 93.322 29.2764Z" fill="#3A3A3C"/>
<path id="Vector_19" d="M96.8188 31.2324H95.7739V26.3291C95.7739 26.2755 95.7739 26.2085 95.7739 26.1416C95.7739 26.0746 95.7739 25.954 95.7605 25.8066H96.7653L96.8055 26.6774C96.8858 26.5569 97.0064 26.4229 97.1672 26.2621C97.3145 26.1147 97.5155 25.9808 97.7432 25.8736C97.971 25.7664 98.2523 25.7128 98.5872 25.7128C98.7078 25.7128 98.815 25.7263 98.9088 25.7396C99.0025 25.753 99.0963 25.7798 99.1767 25.8066L98.9489 26.7846C98.815 26.731 98.6274 26.7042 98.4131 26.7042C98.1183 26.7042 97.8504 26.7846 97.6093 26.932C97.3681 27.0793 97.1806 27.2803 97.0466 27.5348C96.9126 27.7894 96.8322 28.0573 96.8322 28.3654V31.2324H96.8188Z" fill="#3A3A3C"/>
</g>
</g>
</svg>
