<svg width="57" height="56" viewBox="0 0 57 56" fill="none" xmlns="http://www.w3.org/2000/svg">
<path d="M15.1279 52.3241L23.1774 37.2469L23.5461 36.5564L27.3777 38.602C27.3777 38.602 29.3404 43.0516 25.4258 46.7296C21.5111 50.4077 19.1502 51.2179 15.1279 52.3241Z" fill="#FF9100"/>
<path d="M15.1279 52.3242L23.1774 37.247L23.5461 36.5565L19.7145 34.5108C19.7145 34.5108 14.9252 35.3556 14.047 40.6548C13.1688 45.9539 13.8092 48.3664 15.1279 52.3242Z" fill="#FFDE41"/>
<path d="M41.1041 3.66945L33.0545 18.7466L32.6858 19.4372L36.5175 21.4829C36.5175 21.4829 41.3067 20.6381 42.1849 15.3389C43.0631 10.0397 42.4228 7.62725 41.1041 3.66945Z" fill="#FF9100"/>
<path d="M41.1041 3.66942L33.0545 18.7466L32.6858 19.4372L28.8542 17.3915C28.8542 17.3915 26.8915 12.942 30.8062 9.26391C34.7208 5.58584 37.0817 4.77571 41.1041 3.66942Z" fill="#FDBF00"/>
<path d="M56.3947 26.8117L39.3233 27.6399L38.5414 27.6778L38.7519 32.0162C38.7519 32.0162 41.9346 35.6933 46.9335 33.7277C51.9324 31.7621 53.6744 29.9745 56.3947 26.8117Z" fill="#FDBF00"/>
<path d="M56.3946 26.8117L39.3233 27.6399L38.5414 27.6778L38.3309 23.3394C38.3309 23.3394 41.1427 19.3715 46.3084 20.844C51.4741 22.3164 53.381 23.927 56.3946 26.8117Z" fill="#FF9100"/>
<path d="M44.1718 50.2596L33.5677 36.8555L33.082 36.2415L36.4884 33.5467C36.4884 33.5467 41.3516 33.5257 43.1588 38.584C44.966 43.6423 44.7651 46.1303 44.1718 50.2596Z" fill="#FF9100"/>
<path d="M44.1717 50.2595L33.5676 36.8554L33.0819 36.2415L29.6755 38.9364C29.6755 38.9364 28.536 43.6641 33.0426 46.5869C37.5493 49.5096 40.0167 49.8867 44.1717 50.2595Z" fill="#FDBF00"/>
<path d="M13.5784 3.95242L22.3883 18.5983L22.7918 19.2691L19.0698 21.508C19.0698 21.508 14.2437 20.9092 13.0956 15.6619C11.9476 10.4145 12.4638 7.97247 13.5784 3.95242Z" fill="#FFDE41"/>
<path d="M13.5783 3.9524L22.3883 18.5983L22.7918 19.2691L26.5138 17.0302C26.5138 17.0302 28.2464 12.4862 24.1488 9.01304C20.0512 5.53993 17.652 4.85158 13.5783 3.9524Z" fill="#FF9100"/>
<path d="M0.895408 27.1547L17.9331 28.5082L18.7135 28.5702L19.0575 24.2404C19.0575 24.2404 16.3692 20.1878 11.1606 21.5004C5.952 22.8131 3.99645 24.3642 0.895408 27.1547Z" fill="#FFDE41"/>
<path d="M0.895363 27.1546L17.9331 28.5082L18.7135 28.5702L18.3695 32.9001C18.3695 32.9001 15.075 36.4774 10.139 34.3588C5.20302 32.2402 3.51692 30.3997 0.895363 27.1546Z" fill="#FF9100"/>
<path d="M28.1019 55.6308L28.1019 38.5394L28.1019 37.7566L32.4454 37.7566C32.4454 37.7566 36.2723 40.7574 34.5513 45.8457C32.8303 50.9339 31.1292 52.7605 28.1019 55.6308Z" fill="#FDBF00"/>
<path d="M28.1019 55.6308L28.1019 38.5394L28.1019 37.7566L23.7584 37.7566C23.7584 37.7566 19.9314 40.7573 21.6524 45.8456C23.3735 50.9339 25.0746 52.7605 28.1019 55.6308Z" fill="#FFDE41"/>
<path d="M28.1019 0.475891L28.1019 17.5673L28.1019 18.3501L32.4454 18.3501C32.4454 18.3501 36.2723 15.3493 34.5513 10.2611C32.8303 5.17277 31.1292 3.34621 28.1019 0.475891Z" fill="#FDBF00"/>
<path d="M28.1019 0.475891L28.1019 17.5673L28.1019 18.3501L23.7584 18.3501C23.7584 18.3501 19.9314 15.3493 21.6524 10.2611C23.3735 5.17277 25.0746 3.34621 28.1019 0.475891Z" fill="#FFDE41"/>
<path d="M52.4898 13.6895L37.8204 22.4602L37.1485 22.8619L39.3774 26.5899C39.3774 26.5899 43.9168 28.3346 47.4009 24.2464C50.8849 20.1581 51.5797 17.7607 52.4898 13.6895Z" fill="#FDBF00"/>
<path d="M52.4898 13.6896L37.8204 22.4602L37.1485 22.8619L34.9196 19.1339C34.9196 19.1339 35.5313 14.3094 40.7817 13.1754C46.0321 12.0415 48.4728 12.5642 52.4898 13.6896Z" fill="#FFDE41"/>
<path d="M52.7506 40.1309L37.0832 33.3006L36.3657 32.9878L38.1014 29.0062C38.1014 29.0062 42.3816 26.6973 46.3581 30.3084C50.3346 33.9194 51.3292 36.2088 52.7506 40.1309Z" fill="#FDBF00"/>
<path d="M52.7505 40.1309L37.0832 33.3007L36.3656 32.9878L34.6298 36.9694C34.6298 36.9694 35.8512 41.6767 41.2033 42.1325C46.5554 42.5883 48.9096 41.7589 52.7505 40.1309Z" fill="#FFDE41"/>
<path d="M3.95357 13.6895L18.623 22.4602L19.2949 22.8619L17.066 26.5899C17.066 26.5899 12.5266 28.3346 9.04249 24.2464C5.55842 20.1581 4.86365 17.7607 3.95357 13.6895Z" fill="#FFDE41"/>
<path d="M3.95354 13.6895L18.623 22.4602L19.2949 22.8619L21.5238 19.1339C21.5238 19.1339 20.9121 14.3094 15.6617 13.1754C10.4113 12.0415 7.9706 12.5642 3.95354 13.6895Z" fill="#FDBF00"/>
<path d="M3.69256 40.1309L19.3599 33.3006L20.0775 32.9878L18.3417 29.0062C18.3417 29.0062 14.0616 26.6973 10.085 30.3084C6.10847 33.9194 5.11392 36.2088 3.69256 40.1309Z" fill="#FFDE41"/>
<path d="M3.69245 40.1309L19.3598 33.3007L20.0774 32.9878L21.8131 36.9694C21.8131 36.9694 20.5918 41.6767 15.2397 42.1325C9.88758 42.5883 7.5334 41.7589 3.69245 40.1309Z" fill="#FDBF00"/>
<path d="M39.7754 28.1119C39.7754 34.3874 34.688 39.4748 28.4125 39.4748C22.1369 39.4748 17.0496 34.3874 17.0496 28.1119C17.0496 21.8363 22.1369 16.749 28.4125 16.749C34.688 16.749 39.7754 21.8363 39.7754 28.1119Z" fill="#523522"/>
<path d="M28.4125 28.1119C28.4125 34.3874 28.4125 31.3037 28.4125 39.4748C22.1369 39.4748 17.0496 34.3874 17.0496 28.1119C17.0496 21.8363 22.1369 16.749 28.4125 16.749C28.4125 22.7496 28.4125 21.8363 28.4125 28.1119Z" fill="#714C2F"/>
</svg>
