<svg width="64" height="64" viewBox="0 0 64 64" fill="none" xmlns="http://www.w3.org/2000/svg">
<path d="M16.7168 59.7991L25.9163 42.568L26.3376 41.7788L30.7166 44.1167C30.7166 44.1167 32.9597 49.2019 28.4858 53.4054C24.0119 57.6089 21.3138 58.5348 16.7168 59.7991Z" fill="#FF9100"/>
<path d="M16.7168 59.799L25.9163 42.5679L26.3376 41.7787L21.9586 39.4408C21.9586 39.4408 16.4852 40.4063 15.4815 46.4625C14.4778 52.5187 15.2097 55.2758 16.7168 59.799Z" fill="#FFDE41"/>
<path d="M46.4043 4.19365L37.2048 21.4247L36.7835 22.2139L41.1625 24.5518C41.1625 24.5518 46.6359 23.5864 47.6396 17.5302C48.6432 11.474 47.9114 8.71686 46.4043 4.19365Z" fill="#FF9100"/>
<path d="M46.4038 4.19356L37.2043 21.4246L36.783 22.2138L32.404 19.8759C32.404 19.8759 30.1609 14.7908 34.6348 10.5873C39.1087 6.38374 41.8068 5.45788 46.4038 4.19356Z" fill="#FDBF00"/>
<path d="M63.8794 30.6422L44.3693 31.5887L43.4757 31.6321L43.7163 36.5902C43.7163 36.5902 47.3536 40.7926 53.0667 38.5462C58.7797 36.2999 60.7706 34.2569 63.8794 30.6422Z" fill="#FDBF00"/>
<path d="M63.8794 30.6422L44.3692 31.5887L43.4757 31.6321L43.2351 26.6739C43.2351 26.6739 46.4486 22.1392 52.3523 23.822C58.2559 25.5048 60.4352 27.3455 63.8794 30.6422Z" fill="#FF9100"/>
<path d="M49.91 57.4396L37.791 42.1206L37.2359 41.419L41.129 38.3391C41.129 38.3391 46.6869 38.3152 48.7522 44.0961C50.8176 49.877 50.5881 52.7204 49.91 57.4396Z" fill="#FF9100"/>
<path d="M49.9098 57.4396L37.7909 42.1206L37.2358 41.419L33.3428 44.4988C33.3428 44.4988 32.0404 49.902 37.1909 53.2422C42.3414 56.5825 45.1613 57.0135 49.9098 57.4396Z" fill="#FDBF00"/>
<path d="M14.9457 4.51719L25.0142 21.2553L25.4753 22.022L21.2216 24.5807C21.2216 24.5807 15.706 23.8964 14.394 17.8994C13.0819 11.9025 13.6719 9.11154 14.9457 4.51719Z" fill="#FFDE41"/>
<path d="M14.9459 4.51724L25.0144 21.2554L25.4755 22.022L29.7293 19.4633C29.7293 19.4633 31.7094 14.2701 27.0264 10.3008C22.3435 6.33155 19.6015 5.54487 14.9459 4.51724Z" fill="#FF9100"/>
<path d="M0.450709 31.0342L19.9224 32.5811L20.8142 32.652L21.2074 27.7036C21.2074 27.7036 18.135 23.072 12.1824 24.5722C6.22967 26.0724 3.99476 27.8451 0.450709 31.0342Z" fill="#FFDE41"/>
<path d="M0.450658 31.0342L19.9224 32.5811L20.8142 32.6519L20.4211 37.6003C20.4211 37.6003 16.656 41.6887 11.0148 39.2674C5.3737 36.8462 3.44672 34.7428 0.450658 31.0342Z" fill="#FF9100"/>
<path d="M31.5441 63.5776L31.5441 44.0446L31.5441 43.1499L36.5081 43.1499C36.5081 43.1499 40.8818 46.5794 38.9149 52.3946C36.948 58.2098 35.0038 60.2973 31.5441 63.5776Z" fill="#FDBF00"/>
<path d="M31.5443 63.5776L31.5443 44.0446L31.5443 43.1499L26.5803 43.1499C26.5803 43.1499 22.2066 46.5794 24.1735 52.3946C26.1404 58.2098 28.0845 60.2973 31.5443 63.5776Z" fill="#FFDE41"/>
<path d="M31.5441 0.543701L31.5441 20.0768L31.5441 20.9714L36.5081 20.9714C36.5081 20.9714 40.8818 17.5419 38.9149 11.7267C36.948 5.91156 35.0038 3.82406 31.5441 0.543701Z" fill="#FDBF00"/>
<path d="M31.5443 0.543702L31.5443 20.0768L31.5443 20.9714L26.5803 20.9714C26.5803 20.9714 22.2066 17.5419 24.1735 11.7267C26.1404 5.91156 28.0845 3.82406 31.5443 0.543702Z" fill="#FFDE41"/>
<path d="M59.4166 15.645L42.6516 25.6686L41.8837 26.1277L44.431 30.3883C44.431 30.3883 49.6189 32.3823 53.6007 27.71C57.5825 23.0377 58.3765 20.2979 59.4166 15.645Z" fill="#FDBF00"/>
<path d="M59.4164 15.645L42.6513 25.6686L41.8835 26.1277L39.3361 21.8672C39.3361 21.8672 40.0352 16.3534 46.0357 15.0575C52.0361 13.7615 54.8255 14.3589 59.4164 15.645Z" fill="#FFDE41"/>
<path d="M59.7145 45.8636L41.809 38.0576L40.9889 37.7001L42.9727 33.1497C42.9727 33.1497 47.8642 30.511 52.4088 34.6379C56.9535 38.7648 58.0901 41.3812 59.7145 45.8636Z" fill="#FDBF00"/>
<path d="M59.7147 45.8637L41.8092 38.0577L40.9891 37.7002L39.0053 42.2506C39.0053 42.2506 40.4012 47.6303 46.5179 48.1513C52.6345 48.6722 55.325 47.7242 59.7147 45.8637Z" fill="#FFDE41"/>
<path d="M3.94665 15.645L20.7117 25.6686L21.4796 26.1277L18.9322 30.3883C18.9322 30.3883 13.7444 32.3823 9.76257 27.71C5.78077 23.0377 4.98674 20.2979 3.94665 15.645Z" fill="#FFDE41"/>
<path d="M3.94641 15.645L20.7115 25.6686L21.4793 26.1277L24.0267 21.8672C24.0267 21.8672 23.3276 16.3534 17.3271 15.0575C11.3267 13.7615 8.53734 14.3589 3.94641 15.645Z" fill="#FDBF00"/>
<path d="M3.64829 45.8636L21.5538 38.0576L22.3739 37.7001L20.3901 33.1497C20.3901 33.1497 15.4986 30.511 10.954 34.6379C6.40933 38.7648 5.2727 41.3812 3.64829 45.8636Z" fill="#FFDE41"/>
<path d="M3.6481 45.8637L21.5536 38.0577L22.3737 37.7002L24.3575 42.2506C24.3575 42.2506 22.9616 47.6303 16.8449 48.1513C10.7282 48.6722 8.03775 47.7242 3.6481 45.8637Z" fill="#FDBF00"/>
<path d="M44.8864 32.1278C44.8864 39.2999 39.0723 45.114 31.9002 45.114C24.7282 45.114 18.9141 39.2999 18.9141 32.1278C18.9141 24.9557 24.7282 19.1416 31.9002 19.1416C39.0723 19.1416 44.8864 24.9557 44.8864 32.1278Z" fill="#523522"/>
<path d="M31.9002 32.1278C31.9002 39.2999 31.9002 35.7756 31.9002 45.114C24.7282 45.114 18.9141 39.2999 18.9141 32.1278C18.9141 24.9557 24.7282 19.1416 31.9002 19.1416C31.9002 25.9995 31.9002 24.9557 31.9002 32.1278Z" fill="#714C2F"/>
</svg>
