<svg width="272" height="509" viewBox="0 0 272 509" fill="none" xmlns="http://www.w3.org/2000/svg">
<path d="M85.6011 44.4251L-11.8558 226.967L-16.3195 235.327L30.0704 260.095C30.0704 260.095 88.0543 249.867 98.6871 185.709C109.32 121.551 101.567 92.3428 85.6011 44.4251Z" fill="#FF9100"/>
<path d="M85.5996 44.4255L-11.8573 226.967L-16.321 235.328L-62.7109 210.561C-62.7109 210.561 -86.4733 156.69 -39.0783 112.159C8.31665 67.6278 36.9004 57.8195 85.5996 44.4255Z" fill="#FDBF00"/>
<path d="M270.727 324.613L64.0416 334.639L54.5751 335.099L57.1233 387.624C57.1233 387.624 95.6567 432.143 156.179 408.346C216.702 384.548 237.792 362.905 270.727 324.613Z" fill="#FDBF00"/>
<path d="M270.727 324.613L64.0421 334.64L54.5756 335.099L52.0274 282.573C52.0274 282.573 86.0705 234.534 148.612 252.361C211.154 270.188 234.241 289.688 270.727 324.613Z" fill="#FF9100"/>
<path d="M122.741 608.5L-5.64443 446.215L-11.5247 438.782L29.7174 406.155C29.7174 406.155 88.5959 405.901 110.476 467.142C132.356 528.384 129.924 558.506 122.741 608.5Z" fill="#FF9100"/>
<path d="M122.74 608.5L-5.64515 446.215L-11.5254 438.782L-52.7675 471.409C-52.7675 471.409 -66.5641 528.648 -12.0012 564.035C42.5618 599.421 72.4347 603.986 122.74 608.5Z" fill="#FDBF00"/>
<path d="M-71.8234 673.527L-71.8234 466.599L-71.8234 457.121L-19.236 457.121C-19.236 457.121 27.0976 493.452 6.26086 555.056C-14.5759 616.661 -35.1716 638.776 -71.8234 673.527Z" fill="#FDBF00"/>
<path d="M-71.8234 5.75976L-71.8234 212.688L-71.8234 222.166L-19.2361 222.166C-19.2361 222.166 27.0976 185.835 6.26085 124.23C-14.5759 62.6256 -35.1716 40.5111 -71.8234 5.75976Z" fill="#FDBF00"/>
<path d="M223.443 165.738L45.8384 271.926L37.7038 276.79L64.6897 321.925C64.6897 321.925 119.649 343.049 161.831 293.552C204.013 244.055 212.425 215.03 223.443 165.738Z" fill="#FDBF00"/>
<path d="M223.444 165.739L45.8395 271.926L37.705 276.79L10.7191 231.655C10.7191 231.655 18.125 173.243 81.6924 159.514C145.26 145.785 174.809 152.114 223.444 165.739Z" fill="#FFDE41"/>
<path d="M226.602 485.866L36.9157 403.172L28.2277 399.384L49.2431 351.178C49.2431 351.178 101.063 323.224 149.208 366.944C197.352 410.663 209.394 438.38 226.602 485.866Z" fill="#FDBF00"/>
<path d="M226.604 485.866L36.9179 403.172L28.23 399.384L7.21458 447.59C7.21458 447.59 22.0021 504.582 86.8006 510.1C151.599 515.618 180.102 505.576 226.604 485.866Z" fill="#FFDE41"/>
<path d="M69.5131 340.355C69.5131 416.334 7.91988 477.927 -68.0592 477.927C-144.038 477.927 -205.632 416.334 -205.632 340.355C-205.632 264.375 -144.038 202.782 -68.0592 202.782C7.91988 202.782 69.5131 264.375 69.5131 340.355Z" fill="#523522"/>
</svg>
