<svg width="49" height="48" viewBox="0 0 49 48" fill="none" xmlns="http://www.w3.org/2000/svg">
<path d="M13.0382 44.8491L19.9378 31.9258L20.2538 31.3339L23.5381 33.0873C23.5381 33.0873 25.2204 36.9012 21.865 40.0538C18.5096 43.2065 16.4859 43.9009 13.0382 44.8491Z" fill="#FF9100"/>
<path d="M13.0382 44.8491L19.9378 31.9258L20.2538 31.3339L16.9696 29.5805C16.9696 29.5805 12.8645 30.3046 12.1118 34.8467C11.359 39.3889 11.9079 41.4567 13.0382 44.8491Z" fill="#FFDE41"/>
<path d="M35.3033 3.14512L28.4037 16.0684L28.0877 16.6603L31.372 18.4138C31.372 18.4138 35.477 17.6897 36.2298 13.1475C36.9826 8.60536 36.4337 6.53752 35.3033 3.14512Z" fill="#FF9100"/>
<path d="M35.3033 3.14511L28.4037 16.0684L28.0877 16.6603L24.8035 14.9069C24.8035 14.9069 23.1212 11.093 26.4766 7.94038C29.832 4.78774 31.8556 4.09335 35.3033 3.14511Z" fill="#FDBF00"/>
<path d="M48.4097 22.9814L33.7771 23.6913L33.1069 23.7238L33.2873 27.4424C33.2873 27.4424 36.0153 30.5942 40.3001 28.9094C44.5849 27.2247 46.0781 25.6924 48.4097 22.9814Z" fill="#FDBF00"/>
<path d="M48.4096 22.9814L33.7771 23.6913L33.1069 23.7238L32.9265 20.0052C32.9265 20.0052 35.3366 16.6041 39.7643 17.8662C44.1921 19.1283 45.8265 20.5089 48.4096 22.9814Z" fill="#FF9100"/>
<path d="M37.9331 43.0796L28.8439 31.5903L28.4276 31.0641L31.3474 28.7542C31.3474 28.7542 35.5158 28.7362 37.0648 33.0719C38.6138 37.4076 38.4417 39.5402 37.9331 43.0796Z" fill="#FF9100"/>
<path d="M37.9331 43.0796L28.8439 31.5904L28.4276 31.0642L25.5078 33.374C25.5078 33.374 24.531 37.4264 28.3939 39.9316C32.2568 42.4368 34.3717 42.76 37.9331 43.0796Z" fill="#FDBF00"/>
<path d="M11.7099 3.38783L19.2612 15.9414L19.6071 16.5164L16.4168 18.4355C16.4168 18.4355 12.2801 17.9222 11.2961 13.4245C10.3121 8.92679 10.7545 6.83359 11.7099 3.38783Z" fill="#FFDE41"/>
<path d="M11.7098 3.38781L19.2611 15.9414L19.607 16.5164L22.7973 14.5974C22.7973 14.5974 24.2824 10.7024 20.7702 7.7255C17.258 4.74854 15.2015 4.15853 11.7098 3.38781Z" fill="#FF9100"/>
<path d="M0.838642 23.2755L15.4424 24.4357L16.1113 24.4889L16.4061 20.7775C16.4061 20.7775 14.1019 17.3039 9.63738 18.429C5.17287 19.5542 3.49668 20.8837 0.838642 23.2755Z" fill="#FFDE41"/>
<path d="M0.838604 23.2756L15.4424 24.4358L16.1113 24.4889L15.8164 28.2002C15.8164 28.2002 12.9926 31.2665 8.76175 29.4505C4.53088 27.6346 3.08565 26.0571 0.838604 23.2756Z" fill="#FF9100"/>
<path d="M24.1587 47.6834L24.1587 33.0336L24.1587 32.3626L27.8817 32.3626C27.8817 32.3626 31.1619 34.9347 29.6868 39.2961C28.2116 43.6575 26.7535 45.2231 24.1587 47.6834Z" fill="#FDBF00"/>
<path d="M24.1587 47.6833L24.1587 33.0336L24.1587 32.3626L20.4357 32.3626C20.4357 32.3626 17.1555 34.9347 18.6306 39.2961C20.1058 43.6575 21.5639 45.2231 24.1587 47.6833Z" fill="#FFDE41"/>
<path d="M24.1587 0.40802L24.1587 15.0578L24.1587 15.7288L27.8817 15.7288C27.8817 15.7288 31.1619 13.1567 29.6868 8.79531C28.2116 4.43392 26.7535 2.86829 24.1587 0.40802Z" fill="#FDBF00"/>
<path d="M24.1587 0.40802L24.1587 15.0578L24.1587 15.7288L20.4357 15.7288C20.4357 15.7288 17.1555 13.1567 18.6306 8.79531C20.1058 4.43392 21.5639 2.86829 24.1587 0.40802Z" fill="#FFDE41"/>
<path d="M45.0627 11.7338L32.4889 19.2515L31.913 19.5959L33.8235 22.7913C33.8235 22.7913 37.7144 24.2868 40.7008 20.7826C43.6871 17.2783 44.2826 15.2235 45.0627 11.7338Z" fill="#FDBF00"/>
<path d="M45.0628 11.7338L32.489 19.2515L31.9131 19.5959L30.0026 16.4004C30.0026 16.4004 30.5269 12.2651 35.0272 11.2932C39.5276 10.3212 41.6196 10.7692 45.0628 11.7338Z" fill="#FFDE41"/>
<path d="M45.2864 34.3976L31.8572 28.5432L31.2422 28.275L32.73 24.8622C32.73 24.8622 36.3987 22.8832 39.8071 25.9784C43.2156 29.0736 44.0681 31.0358 45.2864 34.3976Z" fill="#FDBF00"/>
<path d="M45.2864 34.3976L31.8573 28.5432L31.2422 28.275L29.7544 31.6878C29.7544 31.6878 30.8013 35.7226 35.3888 36.1133C39.9763 36.504 41.9941 35.7931 45.2864 34.3976Z" fill="#FFDE41"/>
<path d="M3.46023 11.7338L16.034 19.2515L16.6099 19.5959L14.6994 22.7913C14.6994 22.7913 10.8085 24.2868 7.82217 20.7826C4.83582 17.2783 4.2403 15.2235 3.46023 11.7338Z" fill="#FFDE41"/>
<path d="M3.46018 11.7338L16.034 19.2515L16.6099 19.5959L18.5204 16.4004C18.5204 16.4004 17.9961 12.2651 13.4957 11.2932C8.99538 10.3212 6.90337 10.7692 3.46018 11.7338Z" fill="#FDBF00"/>
<path d="M3.23658 34.3976L16.6657 28.5432L17.2808 28.275L15.793 24.8622C15.793 24.8622 12.1243 22.8832 8.71583 25.9784C5.30736 29.0736 4.45489 31.0358 3.23658 34.3976Z" fill="#FFDE41"/>
<path d="M3.23656 34.3976L16.6657 28.5432L17.2808 28.275L18.7686 31.6878C18.7686 31.6878 17.7217 35.7226 13.1342 36.1133C8.54668 36.504 6.5288 35.7931 3.23656 34.3976Z" fill="#FDBF00"/>
<path d="M34.1646 24.0959C34.1646 29.475 29.804 33.8355 24.4249 33.8355C19.0459 33.8355 14.6853 29.475 14.6853 24.0959C14.6853 18.7168 19.0459 14.3563 24.4249 14.3563C29.804 14.3563 34.1646 18.7168 34.1646 24.0959Z" fill="#523522"/>
<path d="M24.4249 24.0959C24.4249 29.475 24.4249 26.8318 24.4249 33.8355C19.0459 33.8355 14.6853 29.475 14.6853 24.0959C14.6853 18.7168 19.0459 14.3563 24.4249 14.3563C24.4249 19.4997 24.4249 18.7168 24.4249 24.0959Z" fill="#714C2F"/>
</svg>
