<svg width="132" height="50" viewBox="0 0 132 50" fill="none" xmlns="http://www.w3.org/2000/svg">
<g clip-path="url(#clip0_1532_1937)">
<path fill-rule="evenodd" clip-rule="evenodd" d="M2.66073 39.4479L19.702 49.287C21.3485 50.2377 23.377 50.2377 25.0235 49.287L42.0648 39.4479C43.7113 38.4972 44.7255 36.7404 44.7255 34.8392V15.1608C44.7255 13.2596 43.7113 11.5028 42.0648 10.5521L25.0235 0.712987C23.377 -0.237662 21.3485 -0.237662 19.702 0.712987L2.66073 10.5521C1.01424 11.5028 0 13.2596 0 15.1608V34.8392C0 36.7404 1.01424 38.4972 2.66073 39.4479ZM26.2929 29.3494C22.6184 32.6702 23.1123 35.2003 25.5331 37.8791H25.5265C26.2137 38.6375 26.6359 39.6404 26.6359 40.7444C26.6359 43.1047 24.7226 45.018 22.3625 45.018C20.0023 45.018 18.0891 43.1047 18.0891 40.7444C18.0891 39.6404 18.5113 38.6375 19.1984 37.8791H19.1919C21.6127 35.2003 22.1066 32.6702 18.4321 29.3494H18.442C17.2526 28.2765 16.5005 26.7281 16.5005 25.0001C16.5005 23.2721 17.2526 21.7237 18.442 20.6508H18.4321C22.1066 17.33 21.6127 14.7999 19.1919 12.1211H19.1984C18.5113 11.3628 18.0891 10.3598 18.0891 9.25575C18.0891 6.89554 20.0023 4.9822 22.3625 4.9822C24.7226 4.9822 26.6359 6.89554 26.6359 9.25575C26.6359 10.3598 26.2137 11.3628 25.5265 12.1211H25.5331C23.1123 14.7999 22.6184 17.33 26.2929 20.6508H26.2829C27.4724 21.7237 28.2245 23.2721 28.2245 25.0001C28.2245 26.7281 27.4724 28.2765 26.2829 29.3494H26.2929ZM13.8092 29.2652C12.5291 27.8487 11.7968 26.4727 11.9258 25.0004C11.7968 23.5281 12.5291 22.1521 13.8092 20.7356H13.8026C14.4898 19.9772 14.912 18.9743 14.912 17.8703C14.912 15.51 12.9988 13.5967 10.6386 13.5967C8.27847 13.5967 6.36523 15.51 6.36523 17.8703C6.36523 18.9743 6.78751 19.9772 7.47462 20.7356H7.46807C8.7482 22.1521 9.48042 23.5281 9.35143 25.0004C9.48042 26.4727 8.7482 27.8487 7.46807 29.2652H7.47462C6.78751 30.0236 6.36523 31.0265 6.36523 32.1306C6.36523 34.4908 8.27847 36.4042 10.6386 36.4042C12.9988 36.4042 14.912 34.4908 14.912 32.1306C14.912 31.0265 14.4898 30.0236 13.8026 29.2652H13.8092ZM35.3736 25.0004C35.2446 26.4727 35.9768 27.8487 37.2569 29.2652H37.2504C37.9375 30.0236 38.3598 31.0265 38.3598 32.1306C38.3598 34.4908 36.4465 36.4042 34.0864 36.4042C31.7262 36.4042 29.813 34.4908 29.813 32.1306C29.813 31.0265 30.2353 30.0236 30.9224 29.2652H30.9158C32.1959 27.8487 32.9282 26.4727 32.7992 25.0004C32.9282 23.5281 32.1959 22.1521 30.9158 20.7356H30.9224C30.2353 19.9772 29.813 18.9743 29.813 17.8703C29.813 15.51 31.7262 13.5967 34.0864 13.5967C36.4465 13.5967 38.3598 15.51 38.3598 17.8703C38.3598 18.9743 37.9375 19.9772 37.2504 20.7356H37.2569C35.9768 22.1521 35.2446 23.5281 35.3736 25.0004Z" fill="#714C2F"/>
<path fill-rule="evenodd" clip-rule="evenodd" d="M59.0413 15.7236V28.4319C59.0413 29.2713 59.3677 29.761 60.0439 29.761C60.5102 29.761 60.9299 29.5978 61.3496 29.3879L61.5128 31.9762C60.9532 32.2094 59.904 32.5125 58.7614 32.5125C56.9427 32.5125 55.7769 31.6264 55.7769 29.2247V15.7236H59.0413" fill="#714C2F"/>
<path fill-rule="evenodd" clip-rule="evenodd" d="M75.1995 28.525C75.1995 29.2245 75.386 29.7608 76.0389 29.7608C76.5052 29.7608 76.8783 29.5976 77.2747 29.3877L77.4146 31.976C76.8084 32.2558 75.8058 32.5123 74.7564 32.5123C73.3808 32.5123 72.5181 31.9527 72.1683 30.7402C71.3289 31.7195 69.9765 32.489 68.2977 32.489C64.8934 32.489 62.585 29.8774 62.585 26.2165C62.585 22.5089 64.8934 19.874 68.2977 19.874C69.8832 19.874 71.119 20.3171 71.9351 21.1332V20.0839H75.1995V28.525ZM71.9351 23.8148C71.3755 23.2318 70.3029 22.7188 69.2071 22.7188C67.1785 22.7188 65.896 24.1179 65.896 26.2166C65.896 28.2685 67.2017 29.6676 69.2071 29.6676C70.2796 29.6676 71.2822 29.1779 71.9351 28.5716V23.8148Z" fill="#714C2F"/>
<path fill-rule="evenodd" clip-rule="evenodd" d="M86.3217 32.5125C84.6662 32.5125 83.477 31.9995 82.6609 31.1834V32.2793H79.3965V15.7236H82.6609V21.11C83.5003 20.3639 84.7594 19.8742 86.3217 19.8742C89.7492 19.8742 92.0577 22.4858 92.0577 26.1701C92.0577 29.8543 89.7492 32.5125 86.3217 32.5125ZM85.4131 22.7188C84.3171 22.7188 83.2912 23.2318 82.6616 23.8614V28.5484C83.2212 29.108 84.2705 29.6676 85.4131 29.6676C87.4183 29.6676 88.7241 28.2685 88.7241 26.1699C88.7241 24.0946 87.4183 22.7188 85.4131 22.7188V22.7188Z" fill="#714C2F"/>
<path fill-rule="evenodd" clip-rule="evenodd" d="M100.196 19.7578C104.02 19.7578 106.771 22.5093 106.771 26.2169C106.771 29.8778 104.02 32.606 100.196 32.606C96.4184 32.606 93.667 29.8778 93.667 26.2169C93.667 22.5093 96.4184 19.7578 100.196 19.7578ZM100.196 29.621C102.248 29.621 103.623 28.1287 103.623 26.2166C103.623 24.2579 102.248 22.7422 100.196 22.7422C98.1906 22.7422 96.8149 24.2579 96.8149 26.2166C96.8149 28.1287 98.1906 29.621 100.196 29.621V29.621Z" fill="#714C2F"/>
<path fill-rule="evenodd" clip-rule="evenodd" d="M110.105 23.8613C110.105 23.1385 109.942 22.6255 109.266 22.6255C108.776 22.6255 108.217 22.8587 108.03 22.9753L107.89 20.4103C108.053 20.2471 109.266 19.874 110.548 19.874C111.947 19.874 112.857 20.4337 113.206 21.7161C113.789 20.5735 114.675 19.874 116.261 19.874C117.403 19.874 118.29 20.2937 118.453 20.5735L117.986 23.5116C117.8 23.2551 116.867 22.882 115.748 22.882C114.186 22.882 113.579 24.2344 113.37 25.6569V32.2791H110.105V23.8613" fill="#714C2F"/>
<path fill-rule="evenodd" clip-rule="evenodd" d="M131.043 30.9504C129.784 31.9764 127.989 32.606 125.913 32.606C121.32 32.606 119.268 29.8078 119.268 26.2169C119.268 22.5792 121.786 19.7578 125.704 19.7578C129.411 19.7578 131.16 22.0196 131.16 24.8411C131.16 25.5873 131.043 26.7532 130.903 27.2195H122.626C122.929 28.9218 124.025 29.8778 126.007 29.8778C127.546 29.8778 128.968 29.2482 129.807 28.6186L131.043 30.9504ZM128.036 24.2816C128.036 23.3022 127.289 22.4628 125.634 22.4628C123.885 22.4628 122.952 23.5121 122.719 24.7013H128.012C128.036 24.5847 128.036 24.3982 128.036 24.2816V24.2816Z" fill="#714C2F"/>
</g>
<defs>
<clipPath id="clip0_1532_1937">
<rect width="131.16" height="50" fill="white"/>
</clipPath>
</defs>
</svg>
