<svg width="156" height="60" viewBox="0 0 156 60" fill="none" xmlns="http://www.w3.org/2000/svg">
<g id="Logo #8">
<path id="Combined Shape" fill-rule="evenodd" clip-rule="evenodd" d="M3.31954 47.2311L23.4505 58.8538C25.3956 59.9767 27.7919 59.9767 29.7369 58.8538L49.8679 47.2311C51.8129 46.1082 53.011 44.0329 53.011 41.787V18.5417C53.011 16.2958 51.8129 14.2206 49.8679 13.0976L29.7369 1.47498C27.7919 0.35201 25.3956 0.35201 23.4505 1.47498L3.31954 13.0976C1.37452 14.2206 0.176392 16.2958 0.176392 18.5417V41.787C0.176392 44.0329 1.37452 46.1082 3.31954 47.2311ZM31.2367 35.3021C26.896 39.2248 27.4794 42.2135 30.3391 45.3778H30.3314C31.1431 46.2737 31.6419 47.4584 31.6419 48.7626C31.6419 51.5507 29.3818 53.8108 26.5937 53.8108C23.8057 53.8108 21.5455 51.5507 21.5455 48.7626C21.5455 47.4584 22.0443 46.2737 22.856 45.3778H22.8483C25.708 42.2135 26.2914 39.2248 21.9507 35.3021H21.9624C20.5574 34.0347 19.6689 32.2056 19.6689 30.1643C19.6689 28.1231 20.5574 26.2941 21.9624 25.0267H21.9507C26.2914 21.1039 25.708 18.1153 22.8483 14.9509H22.856C22.0443 14.0551 21.5455 12.8703 21.5455 11.5661C21.5455 8.7781 23.8057 6.51793 26.5937 6.51793C29.3818 6.51793 31.6419 8.7781 31.6419 11.5661C31.6419 12.8703 31.1431 14.0551 30.3314 14.9509H30.3391C27.4794 18.1153 26.896 21.1039 31.2367 25.0267H31.225C32.6301 26.2941 33.5185 28.1231 33.5185 30.1643C33.5185 32.2056 32.6301 34.0347 31.225 35.3021H31.2367ZM16.4894 35.2023C14.9772 33.529 14.1122 31.9036 14.2646 30.1644C14.1122 28.4252 14.9772 26.7999 16.4894 25.1265H16.4817C17.2934 24.2307 17.7922 23.046 17.7922 21.7418C17.7922 18.9537 15.532 16.6936 12.744 16.6936C9.95592 16.6936 7.6958 18.9537 7.6958 21.7418C7.6958 23.046 8.19464 24.2307 9.00633 25.1265H8.99859C10.5108 26.7999 11.3758 28.4252 11.2234 30.1644C11.3758 31.9036 10.5108 33.529 8.99859 35.2023H9.00633C8.19464 36.0981 7.6958 37.2828 7.6958 38.587C7.6958 41.3751 9.95592 43.6352 12.744 43.6352C15.532 43.6352 17.7922 41.3751 17.7922 38.587C17.7922 37.2828 17.2934 36.0981 16.4817 35.2023H16.4894ZM41.964 30.1644C41.8116 31.9036 42.6766 33.529 44.1888 35.2023H44.181C44.9928 36.0981 45.4916 37.2828 45.4916 38.587C45.4916 41.3751 43.2315 43.6352 40.4434 43.6352C37.6553 43.6352 35.3952 41.3751 35.3952 38.587C35.3952 37.2828 35.8941 36.0981 36.7057 35.2023H36.698C38.2102 33.529 39.0752 31.9036 38.9228 30.1644C39.0752 28.4252 38.2102 26.7999 36.698 25.1265H36.7057C35.8941 24.2307 35.3952 23.046 35.3952 21.7418C35.3952 18.9537 37.6553 16.6936 40.4434 16.6936C43.2315 16.6936 45.4916 18.9537 45.4916 21.7418C45.4916 23.046 44.9928 24.2307 44.181 25.1265H44.1888C42.6766 26.7999 41.8116 28.4252 41.964 30.1644Z" fill="#523522"/>
<path id="Fill 7" fill-rule="evenodd" clip-rule="evenodd" d="M69.9227 19.2065V34.2183C69.9227 35.2099 70.3083 35.7883 71.1071 35.7883C71.6579 35.7883 72.1538 35.5955 72.6496 35.3477L72.8424 38.4051C72.1813 38.6805 70.9418 39.0386 69.5921 39.0386C67.4437 39.0386 66.0664 37.9919 66.0664 35.1548V19.2065H69.9227Z" fill="#523522"/>
<path id="Fill 8" fill-rule="evenodd" clip-rule="evenodd" d="M89.0107 34.3285C89.0107 35.1549 89.231 35.7883 90.0023 35.7883C90.5531 35.7883 90.9939 35.5955 91.4621 35.3477L91.6274 38.4051C90.9112 38.7356 89.7268 39.0386 88.4873 39.0386C86.8622 39.0386 85.8431 38.3775 85.4298 36.9453C84.4383 38.1021 82.8407 39.011 80.8575 39.011C76.836 39.011 74.109 35.9261 74.109 31.6016C74.109 27.222 76.836 24.1094 80.8575 24.1094C82.7305 24.1094 84.1904 24.6328 85.1544 25.5968V24.3573H89.0107V34.3285ZM85.1544 28.7644C84.4933 28.0758 83.2263 27.4698 81.9317 27.4698C79.5353 27.4698 78.0203 29.1225 78.0203 31.6016C78.0203 34.0255 79.5628 35.6781 81.9317 35.6781C83.1988 35.6781 84.3831 35.0997 85.1544 34.3835V28.7644Z" fill="#523522"/>
<path id="Fill 9" fill-rule="evenodd" clip-rule="evenodd" d="M102.15 39.0386C100.194 39.0386 98.7891 38.4326 97.825 37.4686V38.7632H93.9688V19.2065H97.825V25.5693C98.8166 24.6879 100.304 24.1094 102.15 24.1094C106.199 24.1094 108.925 27.1944 108.925 31.5465C108.925 35.8985 106.199 39.0386 102.15 39.0386ZM101.075 27.4698C99.7807 27.4698 98.5687 28.0758 97.825 28.8195V34.356C98.4861 35.0171 99.7256 35.6781 101.075 35.6781C103.444 35.6781 104.987 34.0255 104.987 31.5465C104.987 29.095 103.444 27.4698 101.075 27.4698Z" fill="#523522"/>
<path id="Fill 10" fill-rule="evenodd" clip-rule="evenodd" d="M118.538 23.9717C123.056 23.9717 126.306 27.2219 126.306 31.6015C126.306 35.926 123.056 39.1487 118.538 39.1487C114.076 39.1487 110.826 35.926 110.826 31.6015C110.826 27.2219 114.076 23.9717 118.538 23.9717ZM118.538 35.623C120.962 35.623 122.587 33.8602 122.587 31.6015C122.587 29.2877 120.962 27.4973 118.538 27.4973C116.169 27.4973 114.544 29.2877 114.544 31.6015C114.544 33.8602 116.169 35.623 118.538 35.623Z" fill="#523522"/>
<path id="Fill 11" fill-rule="evenodd" clip-rule="evenodd" d="M130.245 28.8195C130.245 27.9657 130.052 27.3597 129.253 27.3597C128.674 27.3597 128.013 27.6351 127.793 27.7729L127.628 24.7429C127.821 24.5501 129.253 24.1094 130.768 24.1094C132.421 24.1094 133.495 24.7705 133.908 26.2855C134.597 24.9357 135.643 24.1094 137.516 24.1094C138.866 24.1094 139.913 24.6052 140.106 24.9357L139.555 28.4064C139.334 28.1034 138.232 27.6627 136.91 27.6627C135.065 27.6627 134.349 29.2602 134.101 30.9405V38.7632H130.245V28.8195Z" fill="#523522"/>
<path id="Fill 12" fill-rule="evenodd" clip-rule="evenodd" d="M154.979 37.1931C153.492 38.405 151.371 39.1487 148.92 39.1487C143.493 39.1487 141.069 35.8434 141.069 31.6015C141.069 27.3045 144.044 23.9717 148.672 23.9717C153.051 23.9717 155.117 26.6435 155.117 29.9763C155.117 30.8578 154.979 32.235 154.814 32.7859H145.036C145.394 34.7967 146.689 35.926 149.03 35.926C150.848 35.926 152.528 35.1824 153.52 34.4387L154.979 37.1931ZM151.426 29.3153C151.426 28.1584 150.545 27.1668 148.589 27.1668C146.523 27.1668 145.422 28.4063 145.146 29.8111H151.399C151.426 29.6734 151.426 29.4531 151.426 29.3153Z" fill="#523522"/>
</g>
</svg>
