<svg width="132" height="50" viewBox="0 0 132 50" fill="none" xmlns="http://www.w3.org/2000/svg">
<path fill-rule="evenodd" clip-rule="evenodd" d="M2.91376 39.4479L19.9557 49.287C21.6022 50.2377 23.6308 50.2377 25.2774 49.287L42.3193 39.4479C43.9658 38.4972 44.9801 36.7404 44.9801 34.8392V15.1608C44.9801 13.2596 43.9658 11.5028 42.3193 10.5521L25.2774 0.712986C23.6308 -0.237662 21.6022 -0.237662 19.9557 0.712986L2.91376 10.5521C1.2672 11.5028 0.25293 13.2596 0.25293 15.1608V34.8392C0.25293 36.7404 1.2672 38.4972 2.91376 39.4479ZM26.5468 29.3494C22.8722 32.6701 23.3661 35.2002 25.7869 37.879H25.7804C26.4676 38.6374 26.8898 39.6403 26.8898 40.7444C26.8898 43.1046 24.9765 45.018 22.6162 45.018C20.256 45.018 18.3427 43.1046 18.3427 40.7444C18.3427 39.6403 18.7649 38.6374 19.4521 37.879H19.4456C21.8664 35.2002 22.3603 32.6701 18.6857 29.3494H18.6956C17.5062 28.2765 16.754 26.728 16.754 25C16.754 23.2721 17.5062 21.7237 18.6956 20.6507H18.6857C22.3603 17.3299 21.8664 14.7999 19.4456 12.1211H19.4521C18.7649 11.3627 18.3427 10.3598 18.3427 9.25572C18.3427 6.89551 20.256 4.98216 22.6162 4.98216C24.9765 4.98216 26.8898 6.89551 26.8898 9.25572C26.8898 10.3598 26.4676 11.3627 25.7804 12.1211H25.7869C23.3661 14.7999 22.8721 17.3299 26.5468 20.6507H26.5369C27.7263 21.7237 28.4785 23.2721 28.4785 25C28.4785 26.728 27.7263 28.2765 26.5369 29.3494H26.5468ZM14.0628 29.2648C12.7826 27.8483 12.0504 26.4723 12.1794 25C12.0504 23.5277 12.7826 22.1517 14.0628 20.7352H14.0563C14.7434 19.9768 15.1657 18.9739 15.1657 17.8699C15.1657 15.5096 13.2524 13.5963 10.8921 13.5963C8.53189 13.5963 6.61859 15.5096 6.61859 17.8699C6.61859 18.9739 7.04088 19.9768 7.72802 20.7352H7.72147C9.00164 22.1517 9.73389 23.5277 9.6049 25C9.73389 26.4723 9.00164 27.8483 7.72147 29.2648H7.72802C7.04088 30.0232 6.61859 31.0261 6.61859 32.1302C6.61859 34.4904 8.53189 36.4037 10.8921 36.4037C13.2524 36.4037 15.1657 34.4904 15.1657 32.1302C15.1657 31.0261 14.7434 30.0232 14.0563 29.2648H14.0628ZM35.6282 25C35.4992 26.4723 36.2314 27.8483 37.5116 29.2648H37.505C38.1922 30.0232 38.6145 31.0261 38.6145 32.1302C38.6145 34.4904 36.7011 36.4037 34.3409 36.4037C31.9807 36.4037 30.0674 34.4904 30.0674 32.1302C30.0674 31.0261 30.4897 30.0232 31.1768 29.2648H31.1702C32.4504 27.8483 33.1827 26.4723 33.0537 25C33.1827 23.5277 32.4504 22.1517 31.1702 20.7352H31.1768C30.4897 19.9768 30.0674 18.9739 30.0674 17.8699C30.0674 15.5096 31.9807 13.5963 34.3409 13.5963C36.7011 13.5963 38.6145 15.5096 38.6145 17.8699C38.6145 18.9739 38.1922 19.9768 37.505 20.7352H37.5116C36.2314 22.1517 35.4992 23.5277 35.6282 25Z" fill="#523522"/>
<path fill-rule="evenodd" clip-rule="evenodd" d="M59.2963 15.7236V28.4319C59.2963 29.2713 59.6227 29.761 60.2989 29.761C60.7653 29.761 61.185 29.5978 61.6047 29.3879L61.7679 31.9762C61.2083 32.2094 60.159 32.5125 59.0164 32.5125C57.1977 32.5125 56.0317 31.6264 56.0317 29.2247V15.7236H59.2963Z" fill="#523522"/>
<path fill-rule="evenodd" clip-rule="evenodd" d="M75.4558 28.5255C75.4558 29.225 75.6424 29.7613 76.2953 29.7613C76.7616 29.7613 77.1347 29.5981 77.5311 29.3882L77.671 31.9765C77.0647 32.2563 76.0621 32.5128 75.0127 32.5128C73.637 32.5128 72.7743 31.9532 72.4245 30.7407C71.5851 31.72 70.2326 32.4895 68.5537 32.4895C65.1493 32.4895 62.8408 29.8779 62.8408 26.217C62.8408 22.5094 65.1493 19.8745 68.5537 19.8745C70.1393 19.8745 71.3752 20.3175 72.1913 21.1337V20.0843H75.4558V28.5255ZM72.1909 23.8152C71.6313 23.2322 70.5587 22.7192 69.4628 22.7192C67.4341 22.7192 66.1516 24.1183 66.1516 26.217C66.1516 28.2689 67.4574 29.668 69.4628 29.668C70.5354 29.668 71.538 29.1783 72.1909 28.5721V23.8152Z" fill="#523522"/>
<path fill-rule="evenodd" clip-rule="evenodd" d="M86.5778 32.5125C84.9222 32.5125 83.733 31.9995 82.9168 31.1834V32.2793H79.6523V15.7236H82.9168V21.11C83.7563 20.3639 85.0155 19.8742 86.5778 19.8742C90.0055 19.8742 92.314 22.4858 92.314 26.1701C92.314 29.8543 90.0055 32.5125 86.5778 32.5125ZM85.6688 22.719C84.5728 22.719 83.5468 23.232 82.9172 23.8616V28.5486C83.4769 29.1082 84.5262 29.6678 85.6688 29.6678C87.6741 29.6678 88.9799 28.2687 88.9799 26.1701C88.9799 24.0948 87.6741 22.719 85.6688 22.719Z" fill="#523522"/>
<path fill-rule="evenodd" clip-rule="evenodd" d="M100.452 19.7573C104.276 19.7573 107.028 22.5088 107.028 26.2164C107.028 29.8773 104.276 32.6055 100.452 32.6055C96.6748 32.6055 93.9233 29.8773 93.9233 26.2164C93.9233 22.5088 96.6748 19.7573 100.452 19.7573ZM100.452 29.6205C102.504 29.6205 103.88 28.1282 103.88 26.2162C103.88 24.2574 102.504 22.7417 100.452 22.7417C98.4472 22.7417 97.0714 24.2574 97.0714 26.2162C97.0714 28.1282 98.4472 29.6205 100.452 29.6205Z" fill="#523522"/>
<path fill-rule="evenodd" clip-rule="evenodd" d="M110.362 23.8618C110.362 23.139 110.199 22.626 109.523 22.626C109.033 22.626 108.473 22.8592 108.287 22.9758L108.147 20.4108C108.31 20.2476 109.523 19.8745 110.805 19.8745C112.204 19.8745 113.114 20.4342 113.463 21.7166C114.046 20.574 114.932 19.8745 116.518 19.8745C117.661 19.8745 118.547 20.2942 118.71 20.574L118.244 23.5121C118.057 23.2556 117.124 22.8825 116.005 22.8825C114.443 22.8825 113.837 24.2349 113.627 25.6573V32.2796H110.362V23.8618Z" fill="#523522"/>
<path fill-rule="evenodd" clip-rule="evenodd" d="M131.301 30.9499C130.042 31.9759 128.246 32.6055 126.171 32.6055C121.577 32.6055 119.525 29.8073 119.525 26.2164C119.525 22.5788 122.044 19.7573 125.961 19.7573C129.669 19.7573 131.418 22.0191 131.418 24.8406C131.418 25.5868 131.301 26.7527 131.161 27.219H122.883C123.186 28.9213 124.282 29.8773 126.264 29.8773C127.803 29.8773 129.226 29.2477 130.065 28.6181L131.301 30.9499ZM128.293 24.2809C128.293 23.3015 127.547 22.4621 125.891 22.4621C124.142 22.4621 123.209 23.5114 122.976 24.7006H128.269C128.293 24.584 128.293 24.3975 128.293 24.2809Z" fill="#523522"/>
</svg>