<svg width="16" height="14" viewBox="0 0 16 14" fill="none" xmlns="http://www.w3.org/2000/svg">
<path id="Vector" d="M-3.91006e-05 7.27402C-3.91006e-05 7.60554 0.131658 7.92348 0.366078 8.1579C0.600498 8.39232 0.91844 8.52402 1.24996 8.52402H11.15L7.86663 11.8074C7.64583 12.0443 7.52562 12.3577 7.53134 12.6816C7.53705 13.0054 7.66824 13.3144 7.89726 13.5434C8.12628 13.7724 8.43525 13.9036 8.75909 13.9093C9.08292 13.915 9.39634 13.7948 9.63329 13.574L15.05 8.15735C15.284 7.92298 15.4155 7.60527 15.4155 7.27402C15.4155 6.94277 15.284 6.62506 15.05 6.39069L9.63329 0.974019C9.51886 0.851208 9.38086 0.752704 9.22752 0.684384C9.07419 0.616064 8.90867 0.579328 8.74083 0.576366C8.57299 0.573405 8.40628 0.604279 8.25063 0.667148C8.09498 0.730016 7.95359 0.82359 7.8349 0.942288C7.7162 1.06099 7.62262 1.20238 7.55976 1.35802C7.49689 1.51367 7.46601 1.68039 7.46898 1.84822C7.47194 2.01606 7.50867 2.18158 7.57699 2.33492C7.64531 2.48825 7.74382 2.62625 7.86663 2.74069L11.15 6.02402L1.24996 6.02402C0.559961 6.02402 -3.91006e-05 6.58402 -3.91006e-05 7.27402Z" fill="#01350B"/>
</svg>
