<svg width="200" height="53" viewBox="0 0 200 53" fill="none" xmlns="http://www.w3.org/2000/svg">
<path id="Vector" fill-rule="evenodd" clip-rule="evenodd" d="M5.28712 0.0608714C4.13235 0.225725 2.86432 0.843268 1.95832 1.68208C0.182161 3.32646 -0.457265 5.9132 0.335951 8.24529C0.654777 9.18264 1.17892 9.97708 1.98131 10.739C2.73174 11.4516 3.62373 11.9507 4.64531 12.2296C5.09378 12.352 5.30704 12.3714 6.20399 12.3714C7.10093 12.3714 7.3142 12.352 7.76267 12.2296C8.81609 11.942 9.6851 11.445 10.5028 10.6625C11.3427 9.85886 11.9157 8.88282 12.2386 7.70605C12.4327 6.99835 12.4303 5.42848 12.2339 4.70024C11.7559 2.9275 10.5694 1.4624 8.9546 0.650969C7.85185 0.0968123 6.52777 -0.116207 5.28712 0.0608714ZM14.6843 0.639355C14.527 0.733915 14.3695 0.897546 14.287 1.05195L14.1502 1.30782V6.10611C14.1502 10.7945 14.153 10.9092 14.2725 11.1119C14.3397 11.226 14.5004 11.4048 14.6296 11.5092L14.8645 11.699H19.7685H24.6726L24.8876 11.5517C25.0058 11.4707 25.1689 11.3077 25.2499 11.1895L25.3972 10.9746L25.4139 6.1838C25.4299 1.58581 25.426 1.38251 25.3142 1.12988C25.2502 0.985139 25.0935 0.787155 24.966 0.689967L24.7343 0.513194L19.8396 0.497913L14.9448 0.48257L14.6843 0.639355ZM28.1478 0.578781C27.8662 0.725236 27.7016 0.904821 27.5973 1.17952C27.5135 1.39999 27.5042 2.00311 27.5193 6.20232L27.5365 10.9746L27.6838 11.1895C27.7648 11.3077 27.9278 11.4707 28.0461 11.5517L28.261 11.699H33.1651H38.0692L38.3041 11.5092C38.4333 11.4048 38.594 11.226 38.6612 11.1119C38.7807 10.9092 38.7835 10.7945 38.7835 6.10611C38.7835 0.650969 38.8166 1.00335 38.2716 0.657755L37.9955 0.482632L33.1633 0.482998C28.9047 0.483365 28.3094 0.494734 28.1478 0.578781ZM1.42648 14.11C1.09335 14.1909 0.830573 14.3849 0.672198 14.6667L0.519386 14.9386V19.6758C0.519386 22.2812 0.540414 24.4881 0.566086 24.58C0.637602 24.8353 0.954656 25.1581 1.24047 25.2665C1.46902 25.3531 2.02446 25.362 6.26964 25.3468L11.0418 25.3298L11.2568 25.1825C11.375 25.1015 11.538 24.9385 11.619 24.8203L11.7663 24.6053L11.7846 19.8637C11.7972 16.6081 11.7824 15.051 11.7372 14.8955C11.6572 14.6202 11.4208 14.3287 11.1631 14.1877C10.9876 14.0916 10.5851 14.0821 6.29568 14.0729C3.72385 14.0675 1.53271 14.0841 1.42648 14.11ZM15.0671 14.1095C14.5909 14.2254 14.313 14.4875 14.188 14.9386C14.0971 15.2668 14.0929 24.1919 14.1835 24.518C14.2679 24.8221 14.5186 25.1086 14.8201 25.2455C15.0528 25.3512 15.3399 25.3578 19.785 25.3591C22.9612 25.36 24.5591 25.3393 24.675 25.2956C24.932 25.1989 25.2989 24.8131 25.367 24.5679C25.4039 24.435 25.4267 22.552 25.426 19.6758C25.4251 15.2405 25.4192 14.9868 25.3108 14.7482C25.1766 14.4526 24.8835 14.2132 24.5414 14.1198C24.2627 14.0436 15.3772 14.034 15.0671 14.1095ZM121.562 27.3827C119.208 27.6317 117.653 29.0649 117.215 31.3895C116.998 32.5412 117.031 34.0084 117.301 35.1404C117.368 35.4261 117.563 35.9452 117.733 36.2938C117.993 36.828 118.12 37.0068 118.541 37.4306C119.524 38.4201 120.655 38.8303 122.402 38.8303C123.313 38.8303 123.915 38.7406 124.582 38.5053C125.263 38.2651 125.7 37.9849 126.256 37.4325C127.108 36.5844 127.55 35.4909 127.697 33.8647C127.777 32.9818 127.698 31.7891 127.509 31.039C126.836 28.3647 124.699 27.0509 121.562 27.3827ZM66.6564 27.4788C65.1932 27.791 64.2737 28.7926 64.1448 30.2146C64.0597 31.1537 64.3436 31.9797 64.9883 32.6688C65.4271 33.1379 65.9003 33.4394 67.2023 34.0796C68.2236 34.5817 68.7371 34.9607 68.8871 35.323C68.9937 35.5803 68.9377 36.1437 68.7851 36.3501C68.2441 37.0816 66.7142 37.0505 64.7523 36.2679C64.3774 36.1184 64.0543 35.9961 64.0341 35.9961C64.0139 35.9961 63.9974 36.4879 63.9974 37.0888V38.1816L64.2878 38.3053C65.1597 38.6767 66.0136 38.8289 67.2065 38.8255C68.2465 38.8225 68.8525 38.7079 69.5292 38.3863C70.7013 37.8292 71.2763 36.9264 71.2851 35.6294C71.2962 34.0085 70.6798 33.282 68.2762 32.0827C67.7215 31.806 67.1532 31.5009 67.0133 31.4048C66.5391 31.0789 66.3497 30.572 66.5279 30.1053C66.8653 29.2217 68.0156 29.0926 69.7995 29.738C70.1215 29.8545 70.4087 29.9556 70.4377 29.9626C70.4666 29.9696 70.6637 29.5627 70.8756 29.0585L71.2608 28.1416L71.0062 28.0292C70.5594 27.8319 69.7059 27.5701 69.1904 27.4723C68.555 27.3518 67.2357 27.3551 66.6564 27.4788ZM1.25288 27.5298C0.916636 27.6479 0.632712 27.9899 0.54891 28.3777C0.50166 28.5967 0.486929 30.0797 0.500254 33.2761C0.519081 37.7879 0.521404 37.8643 0.647076 38.1049C0.717309 38.2394 0.891575 38.4319 1.03436 38.5328L1.2939 38.7162L5.99855 38.7329C9.14525 38.7441 10.7822 38.7284 10.9416 38.6855C11.2549 38.6011 11.5429 38.3525 11.682 38.0463C11.7877 37.8136 11.7943 37.5272 11.7956 33.106C11.7967 29.0061 11.7849 28.3841 11.7023 28.1863C11.5761 27.8842 11.3899 27.6907 11.094 27.5542C10.8629 27.4476 10.5921 27.4414 6.17343 27.4427C2.3178 27.4438 1.45447 27.4591 1.25288 27.5298ZM14.8201 27.5536C14.5424 27.6796 14.2649 27.9773 14.196 28.2227C14.1708 28.3125 14.1502 30.5316 14.1502 33.1538V37.9215L14.2953 38.1549C14.375 38.2832 14.5518 38.462 14.6881 38.5522L14.9358 38.7162L19.6349 38.7329C22.7777 38.7441 24.4131 38.7284 24.5725 38.6855C24.8857 38.6011 25.1737 38.3525 25.3128 38.0463C25.4186 37.8136 25.4251 37.5272 25.4264 33.106C25.4275 29.0061 25.4157 28.3841 25.3331 28.1863C25.2069 27.8842 25.0207 27.6907 24.7248 27.5542C24.4938 27.4476 24.2204 27.4413 19.7737 27.4413C15.3379 27.4413 15.0528 27.4478 14.8201 27.5536ZM28.2089 27.5542C27.913 27.6907 27.7267 27.8842 27.6006 28.1863C27.5179 28.3841 27.5061 29.0061 27.5073 33.106C27.5086 37.5272 27.5151 37.8136 27.6209 38.0463C27.7599 38.3525 28.048 38.6011 28.3612 38.6855C28.5206 38.7284 30.156 38.7441 33.2988 38.7329L37.9978 38.7162L38.2456 38.5522C38.3819 38.462 38.5587 38.2832 38.6384 38.1549L38.7835 37.9215L38.8006 33.2282C38.8121 30.0726 38.7966 28.4564 38.7531 28.2952C38.6684 27.9807 38.4202 27.6928 38.1136 27.5536C37.8809 27.4478 37.5958 27.4413 33.16 27.4413C28.7132 27.4413 28.4399 27.4476 28.2089 27.5542ZM51.8947 33.0916V38.7467H52.9408H53.9868L53.9483 34.9111C53.9273 32.8016 53.8943 30.8968 53.8752 30.6783C53.8498 30.3874 53.8586 30.2986 53.9084 30.3468C53.9458 30.383 55.0162 32.281 56.2871 34.5644L58.5979 38.7162L60.1362 38.7325L61.6747 38.7488V33.216V27.6831H60.6593H59.6439L59.6664 31.7739C59.6789 34.0237 59.679 35.8545 59.6669 35.8424C59.6548 35.8303 58.5795 33.9413 57.2775 31.6448L54.9101 27.4692L53.4024 27.4529L51.8947 27.4365V33.0916ZM72.2493 28.4778V29.5169H73.7774H75.3055V34.1318V38.7467H76.4669H77.6283V34.1318V29.5169H79.1869H80.7456V28.4778V27.4386H76.4975H72.2493V28.4778ZM86.3691 28.4778V29.5169H87.9278H89.4865V34.1318V38.7467H90.6173H91.7481V34.1318V29.5169H93.3068H94.8654V28.4778V27.4386H90.6173H86.3691V28.4778ZM96.4082 31.4882C96.4307 35.9619 96.4174 35.8006 96.8369 36.6663C97.0991 37.2074 97.8026 37.9105 98.3829 38.2113C99.1952 38.6325 99.6248 38.716 100.978 38.716C102.039 38.716 102.223 38.7006 102.659 38.5754C104.188 38.1355 105.129 37.2238 105.541 35.7822C105.634 35.4566 105.649 34.9672 105.67 31.427L105.693 27.4386H104.527H103.362V30.9184C103.362 34.5151 103.332 35.0713 103.11 35.6657C102.799 36.4978 101.798 36.93 100.637 36.7338C100.06 36.6363 99.6511 36.4047 99.4045 36.0358C98.9878 35.4124 98.9975 35.521 98.9751 31.2742L98.9549 27.4386H97.6714H96.3879L96.4082 31.4882ZM107.457 28.4778V29.5169H108.985H110.513V34.1318V38.7467H111.675H112.836V34.1318V29.5169H114.395H115.953V28.4778V27.4386H111.705H107.457V28.4778ZM184.671 27.7901C184.604 27.9834 183.76 30.3833 182.794 33.1232C181.828 35.8632 180.987 38.2493 180.925 38.4258L180.813 38.7467H182.173H183.533L183.921 37.4631L184.31 36.1795H186.275H188.24L188.631 37.4631L189.021 38.7467H190.38H191.739L191.484 38.0256C191.343 37.6289 190.445 35.0847 189.487 32.3718L187.744 27.4393L186.268 27.439L184.791 27.4386L184.671 27.7901ZM193.093 33.0927V38.7467H196.546H200V37.7076V36.6685H197.677H195.355V32.0536V27.4386H194.224H193.093V33.0927ZM46.7603 33.2149V38.7467H47.9216H49.083V33.2149V27.6831H47.9216H46.7603V33.2149ZM82.2737 33.2149V38.7467H83.4351H84.5965V33.2149V27.6831H83.4351H82.2737V33.2149ZM134.169 33.2149V38.7467H135.33H136.491V36.5768V34.4069H138.417H140.342V33.3686V32.3303L138.432 32.3142L136.522 32.2981L136.506 30.9075L136.489 29.5169H138.568H140.648V28.6V27.6831H137.408H134.169V33.2149ZM142.665 33.2149V38.7467H145.874H149.083V37.7076V36.6685H147.035H144.988V35.2626V33.8567H146.913H148.839V32.8176V31.7785H146.913H144.988V30.6477V29.5169H147.035H149.083V28.6V27.6831H145.874H142.665V33.2149ZM151.406 33.2206V38.7582L153.652 38.7302C155.616 38.7058 155.968 38.6868 156.449 38.579C157.95 38.2425 159.029 37.5571 159.725 36.4979C160.332 35.5728 160.592 34.5604 160.59 33.1232C160.589 31.9355 160.445 31.2372 160.031 30.4015C159.44 29.2089 158.476 28.4105 157.121 27.9911C156.345 27.7508 155.555 27.6856 153.408 27.6844L151.406 27.6831V33.2206ZM163.264 33.2149V38.7467H166.473H169.682V37.7076V36.6685H167.634H165.587V35.2626V33.8567H167.512H169.438V32.8176V31.7785H167.512H165.587V30.6477V29.5169H167.634H169.682V28.6V27.6831H166.473H163.264V33.2149ZM172.005 33.2149V38.7467H173.166H174.328V36.5768V34.4069H174.963H175.599L176.898 36.5004C177.612 37.6518 178.228 38.6289 178.267 38.6717C178.321 38.7306 178.622 38.7454 179.511 38.7328L180.685 38.7162L179.098 36.3355L177.511 33.9549L177.89 33.7418C178.353 33.4821 178.947 32.8957 179.17 32.4769C179.405 32.0374 179.523 31.5251 179.522 30.9558C179.52 29.6562 178.967 28.6975 177.93 28.1954C177.081 27.7839 176.281 27.6843 173.823 27.6836L172.005 27.6831V33.2149ZM121.577 29.4178C120.314 29.7836 119.671 30.8495 119.579 32.7259C119.478 34.8083 120.088 36.1904 121.323 36.6784C121.786 36.8612 122.909 36.8792 123.389 36.7115C124.681 36.2608 125.327 34.8699 125.227 32.7565C125.145 31.0098 124.577 29.912 123.548 29.5108C123.116 29.3423 122.017 29.2905 121.577 29.4178ZM185.71 31.2695C185.399 32.3059 185.079 33.367 184.998 33.6275L184.851 34.1012H186.289C187.63 34.1012 187.726 34.094 187.698 33.9943C187.676 33.916 186.405 29.8018 186.29 29.4358C186.282 29.408 186.02 30.2331 185.71 31.2695ZM153.973 33.0927V36.6685H154.819C156.081 36.6685 156.785 36.4616 157.381 35.9154C158.028 35.3229 158.313 34.5622 158.358 33.3066C158.423 31.505 157.911 30.3411 156.827 29.8305C156.287 29.5758 155.923 29.5169 154.887 29.5169H153.973V33.0927ZM174.328 31.0382V32.5731H174.973C176.507 32.5731 177.218 32.142 177.307 31.1578C177.374 30.4262 177.09 29.952 176.436 29.6993C176.133 29.582 175.92 29.553 175.199 29.5305L174.328 29.5033V31.0382ZM1.18467 41.1864C0.889069 41.3206 0.649705 41.6137 0.556306 41.9558C0.45979 42.3091 0.462846 51.1201 0.559667 51.5044C0.653861 51.8786 0.987724 52.2125 1.36193 52.3067C1.73387 52.4003 10.6192 52.4069 10.9545 52.3137C11.2586 52.2293 11.5451 51.9786 11.682 51.6771C11.7877 51.4444 11.7943 51.1573 11.7956 46.7122C11.7965 43.5242 11.7758 41.9385 11.7319 41.8222C11.6394 41.5776 11.3786 41.3171 11.094 41.1854C10.8627 41.0783 10.5953 41.0722 6.14286 41.0722C1.67654 41.0722 1.42342 41.078 1.18467 41.1864ZM14.8201 41.1844C14.5186 41.3213 14.2679 41.6078 14.1835 41.9118C14.0903 42.2472 14.0968 51.1325 14.1905 51.5044C14.2784 51.8538 14.6087 52.1993 14.9534 52.3026C15.2791 52.4002 24.2368 52.4106 24.5854 52.3137C24.8894 52.2293 25.1759 51.9786 25.3128 51.6771C25.4186 51.4444 25.4251 51.158 25.4264 46.7368C25.4275 42.6369 25.4157 42.0149 25.3331 41.8171C25.2069 41.5151 25.0207 41.3215 24.7248 41.185C24.4938 41.0784 24.2204 41.0722 19.7737 41.0722C15.3379 41.0722 15.0528 41.0786 14.8201 41.1844ZM100.502 44.9174L100.532 46.6871L100.255 46.4143C99.899 46.0632 99.4486 45.8528 98.8851 45.7744C97.3327 45.5585 96.1502 46.42 95.8128 48.0125C95.6961 48.5634 95.6965 49.836 95.8135 50.391C96.1098 51.7955 97.0832 52.622 98.4412 52.622C99.1832 52.622 99.9555 52.3166 100.335 51.873C100.56 51.6101 100.564 51.6133 100.643 52.1178L100.683 52.3775H101.106H101.528V47.7626V43.1477H101H100.472L100.502 44.9174ZM117.984 44.8745L118.016 46.6013L117.784 46.3787C117.27 45.8858 116.399 45.6473 115.571 45.7726C114.069 45.9999 113.264 47.1953 113.264 49.1991C113.264 50.4084 113.549 51.3027 114.122 51.8912C114.713 52.4972 115.641 52.7477 116.613 52.5634C117.064 52.4779 117.47 52.2673 117.803 51.9456C117.965 51.7899 118.107 51.679 118.119 51.6991C118.13 51.7192 118.159 51.8801 118.183 52.0566L118.227 52.3775H118.618H119.01V47.7626V43.1477H118.482H117.953L117.984 44.8745ZM54.2739 43.7542C54.0685 43.9597 54.0315 44.3142 54.1847 44.6103C54.2898 44.8137 54.3866 44.8592 54.7142 44.8592C55.0809 44.8592 55.2566 44.6549 55.2566 44.2285C55.2566 43.9528 55.2298 43.8711 55.0955 43.7367C54.8639 43.5052 54.5156 43.5126 54.2739 43.7542ZM71.3745 43.7637C69.9575 43.8866 68.7867 44.5539 68.1279 45.614C67.4749 46.665 67.2771 48.1009 67.5836 49.5658C67.8484 50.8321 68.5217 51.7351 69.5904 52.2576C70.3328 52.6205 70.8824 52.7066 72.1847 52.6637C73.2124 52.6299 73.7893 52.5505 74.4931 52.3459L74.8165 52.2519V50.1142V47.9766H73.2578H71.6992V48.4947V49.0128L72.723 49.0295L73.7468 49.0462V50.3294V51.6125L73.3495 51.6911C72.7203 51.8156 71.3202 51.8096 70.8434 51.6804C70.2636 51.5231 69.7937 51.2496 69.4069 50.8441C68.8045 50.2126 68.5611 49.4582 68.5604 48.2211C68.5598 47.0293 68.8046 46.3096 69.4425 45.6277C70.0742 44.9525 70.8341 44.6571 71.9437 44.6556C72.6321 44.6547 73.0684 44.7278 73.7468 44.9578C73.9822 45.0376 74.2029 45.103 74.2375 45.1033C74.3012 45.1037 74.6331 44.4012 74.6331 44.2659C74.6331 44.2253 74.42 44.1253 74.1594 44.0437C73.3261 43.7825 72.3219 43.6816 71.3745 43.7637ZM46.7603 48.2448V52.622H47.2789H47.7975L47.8137 50.8341L47.8299 49.0462L48.6957 49.0293L49.5613 49.0124L49.6796 49.1821C49.7447 49.2755 50.2045 50.0533 50.7013 50.9106C51.1982 51.7678 51.6375 52.5046 51.6777 52.5479C51.7303 52.6045 51.9251 52.6216 52.3724 52.609L52.994 52.5915L51.8123 50.6591L50.6307 48.7266L51.0225 48.5335C51.5581 48.2694 51.9617 47.8767 52.1771 47.4102C52.339 47.0599 52.3531 46.9724 52.3526 46.3262C52.352 45.6819 52.3373 45.5914 52.1762 45.2414C51.9777 44.8101 51.5952 44.4201 51.1987 44.2447C50.5622 43.9632 50.2846 43.9275 48.487 43.8969L46.7603 43.8675V48.2448ZM131.907 48.1294V52.3775H132.401H132.895L132.874 48.8047C132.863 46.787 132.878 45.255 132.907 45.2851C132.937 45.3142 134.107 46.9151 135.509 48.8425L138.058 52.347L138.436 52.3652L138.814 52.3834V48.1323V43.8812H138.295H137.775L137.781 46.6777C137.784 48.2157 137.805 49.8249 137.827 50.2535C137.849 50.6823 137.85 51.0329 137.831 51.0329C137.811 51.0329 136.724 49.4244 135.416 47.4587L133.038 43.8846L132.472 43.8829L131.907 43.8812V48.1294ZM153.659 45.1183L153.447 45.8052L152.946 46.0175C152.445 46.2294 152.445 46.2299 152.445 46.4588V46.688L152.949 46.7058L153.454 46.7235L153.484 49.0462C153.514 51.3284 153.517 51.3746 153.66 51.6903C153.819 52.0431 154.099 52.3226 154.449 52.4794C154.72 52.6008 155.861 52.6228 156.128 52.5118C156.284 52.4467 156.296 52.4162 156.296 52.0869V51.7321L155.598 51.7339C154.987 51.7355 154.879 51.7201 154.731 51.6097C154.259 51.2587 154.21 50.9556 154.232 48.5267L154.248 46.7235L155.272 46.7068L156.296 46.69V46.3247V45.9594H155.41H154.523V45.1954V44.4313H154.197H153.871L153.659 45.1183ZM47.7994 46.3204V47.9766H48.7744C49.9101 47.9766 50.2622 47.9155 50.6554 47.6504C51.0938 47.3548 51.253 46.994 51.2527 46.2973C51.2524 45.7039 51.1776 45.4807 50.868 45.1497C50.5507 44.8107 50.1512 44.7164 48.9149 44.689L47.7994 44.6642V46.3204ZM90.8465 45.7442C90.4063 45.8683 90.1178 46.0245 89.7825 46.3201L89.498 46.5709L89.4559 46.2652L89.4138 45.9594H89.0528H88.6918V49.2907V52.622H89.2074H89.7228L89.7452 50.3757C89.7701 47.8784 89.7819 47.7968 90.1901 47.32C90.6835 46.7436 91.8936 46.586 92.5242 47.016C92.6316 47.0893 92.7829 47.2598 92.8604 47.3948C93.0001 47.6386 93.0013 47.6587 93.019 50.1312L93.0368 52.622H93.5538H94.0708V50.1261C94.0708 48.4942 94.0466 47.5095 94.0008 47.2815C93.8594 46.5775 93.3567 46.0029 92.7081 45.8038C92.2509 45.6634 91.2467 45.6313 90.8465 45.7442ZM79.2607 45.9309C78.8049 46.0982 78.3438 46.4888 78.0374 46.9673L77.8422 47.2721L77.7715 46.6311C77.7327 46.2785 77.6983 45.9832 77.6951 45.9747C77.692 45.9663 77.4968 45.9594 77.2615 45.9594H76.8336V49.2907V52.622H77.3532H77.8728L77.8738 50.8036C77.8752 48.4664 77.9548 48.0541 78.5274 47.4203C78.9778 46.9218 79.5771 46.7096 80.233 46.8163C80.4267 46.8478 80.5957 46.8632 80.6085 46.8505C80.6212 46.8378 80.661 46.6291 80.697 46.3869C80.7506 46.0253 80.7471 45.9368 80.6776 45.8928C80.5444 45.8084 79.5193 45.836 79.2607 45.9309ZM150.855 45.8916C150.358 46.0517 149.915 46.3879 149.601 46.8441C149.473 47.0299 149.349 47.1819 149.325 47.1819C149.302 47.1819 149.263 46.9069 149.239 46.5707L149.196 45.9594H148.773H148.35V49.2907V52.622H148.866H149.383L149.401 50.5285L149.419 48.435L149.584 48.0844C149.674 47.8916 149.823 47.6352 149.915 47.5147C150.31 46.9964 151.017 46.7148 151.681 46.8106C151.883 46.8396 152.065 46.8457 152.087 46.8241C152.137 46.7733 152.256 45.9387 152.219 45.8983C152.17 45.8456 151.016 45.8398 150.855 45.8916ZM58.9916 45.9915C57.592 46.3829 56.823 47.7031 56.9276 49.5352C56.9468 49.8714 57.0081 50.2978 57.0638 50.4827C57.5347 52.0439 58.7724 52.8369 60.4051 52.6231C61.6445 52.4609 62.4872 51.6903 62.8126 50.4216C62.9373 49.9353 62.953 48.7739 62.842 48.2516C62.6393 47.2983 62.0626 46.5365 61.2525 46.1517C60.8153 45.9442 60.7573 45.9327 60.0572 45.9164C59.5414 45.9044 59.2228 45.9269 58.9916 45.9915ZM83.2266 45.9953C82.8376 46.082 82.0292 46.4022 82.0292 46.4697C82.0292 46.4857 82.0888 46.6544 82.1617 46.8448C82.2599 47.1014 82.3191 47.183 82.3909 47.1604C82.4442 47.1437 82.6805 47.0605 82.9161 46.9756C84.6033 46.3676 85.5745 46.8347 85.5745 48.2541V48.6318L84.5812 48.6643C83.1183 48.7121 82.2826 48.9498 81.7679 49.4645C81.4064 49.826 81.3262 50.0663 81.3266 50.7883C81.327 51.5437 81.4205 51.78 81.8788 52.1834C82.3347 52.5848 83.0343 52.7403 83.8565 52.6233C84.4619 52.537 84.7755 52.3875 85.1997 51.9829C85.3951 51.7966 85.5698 51.644 85.5878 51.644C85.6059 51.644 85.6549 51.8641 85.6967 52.133L85.7728 52.622H86.1932H86.6136V50.2205C86.6136 47.6056 86.5935 47.411 86.26 46.7886C86.0813 46.4552 85.6796 46.1387 85.2797 46.0161C84.9036 45.9008 83.7052 45.8887 83.2266 45.9953ZM122.867 45.9915C121.467 46.3829 120.698 47.7031 120.803 49.5352C120.822 49.8714 120.883 50.2978 120.939 50.4827C121.41 52.0439 122.648 52.8369 124.281 52.6231C125.52 52.4609 126.363 51.6903 126.688 50.4216C126.813 49.9353 126.828 48.7739 126.717 48.2516C126.515 47.2983 125.938 46.5365 125.128 46.1517C124.691 45.9442 124.633 45.9327 123.933 45.9164C123.417 45.9044 123.098 45.9269 122.867 45.9915ZM142.671 45.9951C142.191 46.1242 141.787 46.3646 141.448 46.7233C140.914 47.2885 140.667 47.9586 140.61 49.0049C140.478 51.3894 141.92 52.8926 144.081 52.6253C145.329 52.4709 146.243 51.6118 146.523 50.3299C146.638 49.803 146.62 48.5888 146.489 48.0988C146.196 46.9989 145.417 46.1905 144.431 45.9631C144.043 45.8738 143.055 45.8918 142.671 45.9951ZM54.2175 49.1685V52.3775H54.737H55.2566V49.1685V45.9594H54.737H54.2175V49.1685ZM105.754 46.0253C104.862 46.2006 104.118 46.9888 103.823 48.0721C103.768 48.2717 103.708 48.7513 103.688 49.1379C103.604 50.7955 104.131 51.934 105.235 52.4798C105.666 52.6926 105.736 52.7078 106.393 52.733C107.144 52.7617 107.621 52.6955 108.165 52.4872L108.496 52.3606V51.9041C108.496 51.493 108.486 51.4521 108.389 51.4924C107.553 51.8427 106.558 51.9734 105.988 51.8077C105.221 51.5843 104.772 50.9688 104.655 49.9784L104.606 49.5658H106.673H108.741L108.74 49.0004C108.737 47.3475 108.021 46.2551 106.79 46.0215C106.413 45.95 106.131 45.9511 105.754 46.0253ZM159.719 46.0444C158.758 46.2581 158.071 47.0223 157.785 48.1945C157.645 48.7717 157.643 50.0674 157.781 50.5887C158.164 52.0328 159.097 52.7464 160.595 52.7428C161.267 52.7412 161.573 52.6906 162.118 52.4912L162.469 52.3626V51.9051C162.469 51.4931 162.459 51.4521 162.362 51.4924C161.511 51.8492 160.532 51.9738 159.938 51.801C159.233 51.5959 158.738 50.8951 158.643 49.9662L158.602 49.5658H160.658H162.714L162.713 48.9393C162.712 47.9274 162.499 47.2648 161.993 46.6909C161.69 46.3473 161.267 46.1127 160.793 46.0259C160.349 45.9446 160.152 45.948 159.719 46.0444ZM105.667 46.6341C105.315 46.722 105.121 46.8411 104.849 47.1363C104.603 47.4035 104.395 47.856 104.315 48.2975L104.273 48.5267H105.996H107.719L107.686 48.172C107.625 47.4936 107.272 46.9355 106.774 46.7277C106.481 46.6055 105.959 46.5613 105.667 46.6341ZM159.707 46.6528C159.297 46.7681 158.973 47.0029 158.754 47.3448C158.587 47.6056 158.374 48.2228 158.374 48.4478C158.374 48.5104 158.73 48.5267 160.094 48.5267H161.814L161.774 48.1918C161.688 47.4565 161.365 46.9346 160.869 46.7277C160.544 46.5919 160.039 46.5594 159.707 46.6528ZM59.5267 46.7546C58.4288 46.9425 57.8855 47.8982 57.9633 49.5047C58.0337 50.9587 58.6393 51.7316 59.7715 51.8126C60.9509 51.897 61.6826 51.2024 61.8661 49.8242C62.0074 48.7631 61.7677 47.7581 61.2498 47.2402C60.8417 46.8321 60.1736 46.6439 59.5267 46.7546ZM98.1013 46.7728C97.3682 46.98 96.9514 47.6126 96.8099 48.7329C96.62 50.2362 97.1084 51.4704 97.9974 51.7344C98.7131 51.9469 99.5697 51.7675 99.9838 51.3183C100.387 50.8808 100.459 50.5727 100.456 49.2907C100.454 48.2857 100.441 48.1588 100.31 47.8238C100.135 47.3752 99.7133 46.938 99.3502 46.8292C98.9544 46.7106 98.4084 46.686 98.1013 46.7728ZM115.583 46.7728C114.85 46.9801 114.442 47.6042 114.287 48.7561C114.205 49.3717 114.289 50.2215 114.485 50.7418C114.83 51.6587 115.75 52.0374 116.826 51.7051C117.133 51.6103 117.277 51.5233 117.465 51.3183C117.869 50.8808 117.94 50.5727 117.938 49.2907C117.935 48.2857 117.923 48.1588 117.792 47.8238C117.617 47.3752 117.195 46.938 116.832 46.8292C116.436 46.7106 115.89 46.686 115.583 46.7728ZM123.402 46.7546C122.304 46.9425 121.761 47.8982 121.839 49.5047C121.909 50.9587 122.515 51.7316 123.647 51.8126C124.826 51.897 125.558 51.2024 125.742 49.8242C125.883 48.7631 125.643 47.7581 125.125 47.2402C124.717 46.8321 124.049 46.6439 123.402 46.7546ZM143.21 46.7541C142.124 46.9404 141.546 47.9648 141.644 49.5315C141.734 50.9766 142.333 51.7326 143.451 51.8126C144.722 51.9036 145.476 51.0997 145.579 49.5453C145.646 48.5157 145.363 47.5914 144.844 47.1468C144.461 46.8197 143.781 46.6561 143.21 46.7541ZM84.3481 49.3837C83.3325 49.4612 82.8011 49.6849 82.5321 50.1483C82.4152 50.3495 82.3945 50.4612 82.4107 50.8016C82.4341 51.291 82.5522 51.4865 82.9497 51.6941C83.1859 51.8175 83.2893 51.833 83.7457 51.8134C84.1641 51.7953 84.3399 51.7566 84.6151 51.622C85.288 51.2928 85.5745 50.7576 85.5745 49.8297V49.3213L85.2536 49.3302C85.077 49.3351 84.6696 49.3591 84.3481 49.3837Z" fill="#01350B"/>
</svg>
